<?xml version="1.0" encoding="utf-8"?>
<!-- Generator: Adobe Illustrator 16.0.0, SVG Export Plug-In . SVG Version: 6.00 Build 0)  -->
<!DOCTYPE svg PUBLIC "-//W3C//DTD SVG 1.1//EN" "http://www.w3.org/Graphics/SVG/1.1/DTD/svg11.dtd">
<svg version="1.1" id="Ebene_1" xmlns="http://www.w3.org/2000/svg" xmlns:xlink="http://www.w3.org/1999/xlink" x="0px" y="0px"
	 width="600px" height="600px" viewBox="0 0 600 600" enable-background="new 0 0 600 600" xml:space="preserve">
<g>
	<path class="path" fill-rule="evenodd" clip-rule="evenodd" d="M367.816,74.939c1.581-0.211,1.966,0.757,2.201,1.884
		c3.329-0.886,6.385,0.287,6.907,3.146c-1.24,0.53-3.306,0.25-4.713,0.621c-0.605-0.333-0.439-1.438-0.938-1.884
		c-1.226-0.491-0.65,0.817-1.256,0.946C367.718,79.796,367.393,76.505,367.816,74.939z"/>
	<path class="path" fill-rule="evenodd" clip-rule="evenodd" d="M363.11,75.885c1.611,0.167,1.354,2.194,2.822,2.512
		c0.098,1.248,0.022,2.322-0.629,2.83c-1.573,0.318-1.731-0.787-2.829-0.946C362.679,78.806,361.953,76.407,363.11,75.885z"/>
	<path class="path" fill-rule="evenodd" clip-rule="evenodd" d="M227.435,83.11c-1.01-0.28-0.651,0.81-1.26,0.938
		c-3.763-1.777-6.483-4.607-11.616-5.023c-0.519,0.007-0.178,0.87-0.632,0.945c-5.144-1.407-13.395-1.028-17.271,1.566
		c-1.521,0.022-2.989-0.069-3.768,0.317c-5.711,2.814-11.382,7.52-14.132,12.559c-3.48,0.295-6.672,3.586-7.853,7.225
		c-4.63-2.558-9.865-0.628-9.422,5.341c-4.832-2.042-11.526,3.602-7.85,6.908c1.286-2.732,4.165-6.945,7.85-4.396
		c-0.39,0.658-1.442,1.604-0.628,2.512c5.992,0.977,0.617-8.519,5.027-9.418c2.512-0.522,3.196,3.699,5.023,1.566
		c0.254,2.98-1.861,5.854-0.627,7.852c4.607-1.361,1.331-10.599,4.709-13.194c-0.442,7.785,1.646,16.72,1.26,25.125
		c-0.499,10.713,3.741,17.205,6.593,24.815c0.432,1.15-0.269,2.769,1.57,3.14c1.32-2.761,4.815-3.352,7.853-4.396
		c-0.999,2.981-3.964,3.987-5.969,5.969c4.047,5.501,16.651-1.021,12.876-7.224c0.779-1.113,1.959-2.762,1.256-4.396
		c-2.459-0.318-3.987,4.305-1.57,5.023c-1.744,0.083-0.578,1.43-0.942,2.202c-1.255,2.671-4.493,3.533-7.535,4.395
		c1.384-2.178,4.138-2.98,4.082-6.597c1.074,0.128,1.789-0.09,1.569-1.256c-1.524-1.861-5.432,0.499-6.597,0
		c2.364-0.401,2.364-6.968-0.627-6.597c-0.235,1.74-0.779,5.749,0.317,7.225c-1.668,0.325-2.807,1.18-4.399,1.573
		c-1.491-5.689-5.61-10.327-6.279-17.279c-0.557-5.719,0.56-13.966-0.314-19.466c2.84-1.574,5.243-5.205,5.023-8.798
		c-3.396,0.583-2.897,5.061-5.341,6.597c0.178-1.438-0.556-1.959-0.31-3.458c2.151-2.557,3.888-5.53,4.709-9.419
		c-0.284-0.923-1.154-0.091-1.26-0.628c1.12-1.467,1.892-3.821,3.772-5.341c2.353-1.906,7.993-5.893,10.05-6.279
		c2.951-0.553,5.776,1.551,8.795,0c0.336-1.596-1.207-1.309-1.888-1.884c4.278-0.454,8.526-0.983,12.248,0.311
		c0.871,0.136,0.296-1.173,0.946-1.256c3.7,0.197,7.21,5.281,11.303,5.341c-0.057,0,1.438-0.673,1.574-0.627
		c3.208,1.104,12.392,13.678,5.023,15.387c-0.227-3.639-0.673-7.073-4.078-7.535c-0.81,2.527,2.115,3.624,1.88,6.59
		c-0.034,1.437-2.084,0.854-1.569,2.829c2.027,0.598,2.95-0.468,5.651,0C242.982,96.508,232.375,85.652,227.435,83.11z
		 M177.5,101.955c-1.131-2.397,1.024-4.206,1.569-5.969c0.254,0.166,0.511,0.326,0.942,0.31
		C179.422,98.43,178.086,99.822,177.5,101.955z"/>
	<path class="path" fill-rule="evenodd" clip-rule="evenodd" d="M381.32,81.227c0.007,1.808-2.224,1.203-3.14,0.627c0-0.423,0-0.84,0-1.263
		C378.997,80.008,381.245,80.092,381.32,81.227z"/>
	<path class="path" fill-rule="evenodd" clip-rule="evenodd" d="M371.584,81.537c0.196,1.982-1.12,2.436-1.566,3.775
		c-1.574-0.53-3.117-1.075-3.14-3.147C368.338,82.051,369.775,80.008,371.584,81.537z"/>
	<path class="path" fill-rule="evenodd" clip-rule="evenodd" d="M376.614,82.482c-1.611,2.58,1.815,3.775,0.629,6.589
		c-2.573,0.477-1.552-2.64-3.458-2.822C373.369,83.73,374.655,80.651,376.614,82.482z"/>
	<path class="path" fill-rule="evenodd" clip-rule="evenodd" d="M361.847,82.165c0.424,0,0.84,0,1.264,0c0.265,0.862,1.014,2.285,0.311,3.147
		c-0.522,0-1.045,0-1.574,0C361.574,84.532,361.234,82.875,361.847,82.165z"/>
	<path class="path" fill-rule="evenodd" clip-rule="evenodd" d="M383.522,84.994c0.09,0.817-0.114,1.347-0.946,1.256
		c-0.03,1.286,1.256,1.256,0.946,2.822c-1.559,0.016-1.271,1.876-1.885,2.83c-0.416,0-0.84,0-1.255,0
		c-0.871-2.059,0.136-4.366,0.31-5.652c-0.31-0.529-1.453-0.227-1.566-0.938C379.255,83.185,382.826,83.549,383.522,84.994z"/>
	<path class="path" fill-rule="evenodd" clip-rule="evenodd" d="M350.544,84.994c2.996,0.144,3.223,3.056,3.768,5.652
		c-0.915,0.65-1.18,1.014-2.512,0.627c-0.029-0.779-0.59-0.976,0-1.565c-1.535,0.067-2.186-0.742-2.829-1.574
		C349.364,86.953,350.507,86.522,350.544,84.994z"/>
	<path class="path" fill-rule="evenodd" clip-rule="evenodd" d="M366.25,86.56c0.416,0,0.832,0,1.256,0c0.378,1.089,0.681,2.254,0.628,3.775
		c0.075,0.81,0.537-0.432,1.256,0c0.658,0.726,1.407,2.595,0.628,3.768c-1.929,0.249-2.111-1.241-2.201-2.83
		c-0.5-0.515-1.173,0.144-1.884-0.627C366.061,89.306,365.63,87.415,366.25,86.56z"/>
	<path class="path" fill-rule="evenodd" clip-rule="evenodd" d="M228.694,101.009c-1.634,1.104-3.252-0.583-4.084-1.573
		c-1.809-2.133-3.106-5.372-5.341-7.535c-1.555-1.506-3.291-2.021-4.396-3.768c-0.09-0.507,0.295-0.545,0.314-0.946
		c0.253-0.166,0.511-0.325,0.941-0.31c4.834,2.157,7.051,6.771,10.047,10.675C227.046,98.687,228.702,99.338,228.694,101.009z"/>
	<path class="path" fill-rule="evenodd" clip-rule="evenodd" d="M218.327,96.614c-5.194,0.257-6.987-5.561-10.679-7.853
		c-0.086-0.507,0.299-0.545,0.315-0.946c0.279-0.242,0.71-0.333,1.259-0.31c1.998,1.12,3.427,3.185,5.337,5.023
		C215.841,93.762,218.1,94.602,218.327,96.614z"/>
	<path class="path" fill-rule="evenodd" clip-rule="evenodd" d="M348.343,106.033c1.952-0.56,2.156-2.867,4.403-3.14
		c0.234-3.956-3.594-7.012-1.573-10.674c2.549,1.733,2.436,6.143,3.768,9.109c1.823,0.045,2.829-0.598,4.396,0
		c0.431,0.401,0.431,1.482,0,1.883c0.74,0.62,2.004,0.719,3.457,0.628c0.499-2.337,3.949-3.026,5.969-2.83
		c0.038,0.772,0.046,1.513-0.318,1.884c5.72,0.614,7.219-4.66,10.993-6.907c-0.34-1.165-1.369-3.344,0.628-3.458
		c1.301-0.045,0.953,1.558,1.256,2.512c0.521-1.998,0.711-4.32,3.457-4.078c0.757,2.202-0.362,4.729-2.511,5.023
		c-2.384,4.32-8.11,5.289-9.109,10.992c-1.763,0.295-0.598-2.33-2.201-2.201c-1.136-0.303-0.317,1.354-0.938,1.574
		c-1.264-0.099-3.23,0.507-2.83-1.264c-3.518-0.34-5.219,1.907-8.48,0.318c-0.65,0.083-0.083,1.384-0.627,1.573
		c-1.741,0.174-2.838-0.303-2.822-1.892c-0.734,0-1.468,0-2.201,0c-0.068,1.015,0.56,1.332,0.317,2.52
		c-1.044,0.537-1.921,0.09-2.201-0.946c-2.822,3.768,0.386,7.134,1.573,10.365c1.173,2.209,5.811,2.527,4.705,5.968
		C351.226,120.528,346.565,114.597,348.343,106.033z"/>
	<path class="path" fill-rule="evenodd" clip-rule="evenodd" d="M203.567,92.529c3.264-1.134,6.434,2.882,10.36,3.14c0,0.529,0,1.051,0,1.573
		C210.001,97.378,205.265,95.661,203.567,92.529z"/>
	<path class="path" fill-rule="evenodd" clip-rule="evenodd" d="M374.73,92.219c0.205,0,0.417,0,0.629,0c1.792,0.333,3.215,4.509,1.255,5.652
		C375.117,97.008,374.33,93.944,374.73,92.219z"/>
	<path class="path" fill-rule="evenodd" clip-rule="evenodd" d="M382.894,96.296c3.337-0.605,2.564,3.829,2.194,5.969
		c3.616,0.03,9.888-0.394,9.426,4.713c7.143,1.007,5.19,5.463,3.14,11.621c-1.052,3.147-1.339,6.166-2.511,7.853
		c-5.629-4.834,8.245-15.956-0.946-17.28c-2.814,3.178-1.149,12.415-5.961,12.566c0.643-4.6,2.609-10.569,4.077-15.388
		c-0.832-2.746-5.522-1.407-7.853-1.892c-1.135,0.96-0.938,3.253-3.45,2.829c-0.37-2.308,2.073-4.312,2.201-7.224
		C383.265,98.657,382.243,97.757,382.894,96.296z"/>
	<path class="path" fill-rule="evenodd" clip-rule="evenodd" d="M212.361,98.18c-0.987,2.913-5.591,3.805-8.794,3.458
		C204.485,98.771,210.213,97.779,212.361,98.18z"/>
	<path class="path" fill-rule="evenodd" clip-rule="evenodd" d="M380.692,102.893c-0.477-0.574-0.477-2.564,0-3.14
		C383.265,98.998,383.265,103.65,380.692,102.893z"/>
	<path class="path" fill-rule="evenodd" clip-rule="evenodd" d="M198.225,104.459c-1.551,1.082-2.122-1.104-3.454-1.249
		c-3.669-0.424-4.705,1.786-5.968,3.768c-0.091,3.473,0.423,6.007,1.573,8.163c0.866,1.634,3.019,2.489,2.511,4.396
		c-4.191,0.061-5.598-5.25-6.279-9.729c-2.364,0.816-3.922,6.688-7.539,6.279c-0.525-2.111,2.569-4.26,4.71-6.915
		c2.719-3.358,6.021-10.576,12.248-8.163C196.977,101.381,198.755,103.015,198.225,104.459z"/>
	<path class="path" fill-rule="evenodd" clip-rule="evenodd" d="M209.532,102.583c-0.866,3.215-4.297,5.538-7.535,5.333
		c-0.067-2.716,4.623-3.306,5.966-5.651C208.851,102.008,208.775,102.712,209.532,102.583z"/>
	<path class="path" fill-rule="evenodd" clip-rule="evenodd" d="M229.323,103.521c-0.976,2.3-2.031,6.098-5.027,5.341
		C225.23,106.525,226.614,102.091,229.323,103.521z"/>
	<path class="path" fill-rule="evenodd" clip-rule="evenodd" d="M243.765,104.15c-1.736,1.891-8.103,0.59-10.047,1.255
		C233.408,101.66,242.418,102.281,243.765,104.15z"/>
	<path class="path" fill-rule="evenodd" clip-rule="evenodd" d="M229.005,121.429c-7.796-2.603-4.328,9.804-7.225,13.814
		c-1.176-0.779-2.822-2.527-4.71-1.573c0.254,2.557,3.802,4.055,5.338,3.775c3.37-0.628,3.14-10.992,3.14-10.992
		C224.987,123.063,228.831,124.076,229.005,121.429z"/>
	<path class="path" fill-rule="evenodd" clip-rule="evenodd" d="M191.632,110.429c0.053-0.363-0.067-0.553-0.313-0.62
		c0.95-2.089,4.149-1.922,4.709-4.403c1.446,0.022,1.71,1.226,1.574,2.829C195.812,109.006,193.895,111.17,191.632,110.429z"/>
	<path class="path" fill-rule="evenodd" clip-rule="evenodd" d="M231.517,105.723c0.313,0,0.628,0,0.946,0c1.929,2.882,1.763,11.492-1.26,11.93
		C230.605,114.71,231.585,108.871,231.517,105.723z"/>
	<path class="path" fill-rule="evenodd" clip-rule="evenodd" d="M432.515,106.033c0.984,1.876,0.628,7.142-1.565,7.854
		C430.011,112.169,430.109,106.464,432.515,106.033z"/>
	<path class="path" fill-rule="evenodd" clip-rule="evenodd" d="M385.405,106.351c-0.438,5.56,4.048,16.417-1.565,19.783
		c-1.544-1.777,0.378-3.639,0.62-5.651c0.499-4.025-1.672-8.428-0.938-13.194c-0.092-0.507,0.295-0.537,0.317-0.938
		C384.361,106.351,384.884,106.351,385.405,106.351z"/>
	<path class="path" fill-rule="evenodd" clip-rule="evenodd" d="M203.881,110.118c-0.122,2.035-3.307,2.474-5.028,1.884
		C198.596,109.717,202.666,108.893,203.881,110.118z"/>
	<path class="path" fill-rule="evenodd" clip-rule="evenodd" d="M196.027,110.747c-0.847,1.559-0.336,4.479-2.825,4.395
		C192.041,112.948,194.015,108.81,196.027,110.747z"/>
	<path class="path" fill-rule="evenodd" clip-rule="evenodd" d="M367.188,110.118c0.53,0.522,0.25,1.846,0.318,2.83
		c-1.059,0.771-3.639,3.064-4.713,0.938C364.275,112.645,365.047,110.693,367.188,110.118z"/>
	<path class="path" fill-rule="evenodd" clip-rule="evenodd" d="M410.22,110.747c-0.022,5.681,4.161,8.806,4.078,13.504
		c-2.527-0.152-3.284-3.201-4.078-5.024c-0.907-2.088-1.921-4.577-1.884-7.225c0.424-0.311,0.401-1.059,0.938-1.255
		C409.593,110.747,409.902,110.747,410.22,110.747z"/>
	<path class="path" fill-rule="evenodd" clip-rule="evenodd" d="M442.252,112.948c0.249,4.039,0.839,7.747,2.201,10.674
		c-0.628,0-0.4,0.854-1.256,0.628c-1.316-0.053-1.181-1.544-1.573-2.512c-0.825,0.121-0.878,1.006-2.202,0.628
		c-0.507-1.998-0.34-4.675-0.627-6.907C441.063,115.74,439.694,112.373,442.252,112.948z"/>
	<path class="path" fill-rule="evenodd" clip-rule="evenodd" d="M226.804,119.537c-2.618-1.142-4.879-2.647-5.965-5.341
		C223.853,113.546,227.318,116.67,226.804,119.537z"/>
	<path class="path" fill-rule="evenodd" clip-rule="evenodd" d="M419.956,114.196c0.894,5.077,4.184,7.754,6.907,10.993
		c0.054-3.019-3.298-4.184-2.511-6.908c2.753,0.015,3.517,3.208,4.396,5.651c0.771,2.172,2.775,5.758,0.627,7.543
		c-1.679,0.106-1.044-2.096-1.573-3.14c-0.045-0.703-0.787,0.409-1.566,0c-2.42-4.426-9.101-7.8-7.535-14.14
		C419.117,114.196,419.533,114.196,419.956,114.196z"/>
	<path class="path" fill-rule="evenodd" clip-rule="evenodd" d="M369.072,115.77c-0.054,2.391-5.568,1.83-6.908,0.945c0-0.423,0-0.839,0-1.255
		C363.776,115.081,367.959,114.627,369.072,115.77z"/>
	<path class="path" fill-rule="evenodd" clip-rule="evenodd" d="M413.359,115.459c2.179,0.122,2.731,2.928,3.768,4.395
		c1.082,1.529,3.201,2.921,2.829,4.706C416.628,124.659,412.981,119.242,413.359,115.459z"/>
	<path class="path" fill-rule="evenodd" clip-rule="evenodd" d="M202.625,116.715c-2.799,2.55-1.638,10.698-6.912,9.737
		c0.095-2.724,4.634-4.638,1.888-7.225C197.987,117.283,201.123,114.582,202.625,116.715z"/>
	<path class="path" fill-rule="evenodd" clip-rule="evenodd" d="M406.763,115.77c-0.038,2.572,2.255,5.378,0.946,7.224
		C405.349,122.941,403.139,115.951,406.763,115.77z"/>
	<path class="path" fill-rule="evenodd" clip-rule="evenodd" d="M222.408,118.281c0.068,2.058-1.824,2.157-2.512,3.458
		c-1.142-0.008-1.376-0.923-1.255-2.202c-1.252,0.106-2.319,0.022-2.826-0.627C215.97,115.929,220.971,117.782,222.408,118.281z"/>
	<path class="path" fill-rule="evenodd" clip-rule="evenodd" d="M196.346,122.367c-1.619,1.838-2.292,4.615-5.027,5.341
		C190.501,125.007,193.743,120.619,196.346,122.367z"/>
	<path class="path" fill-rule="evenodd" clip-rule="evenodd" d="M434.089,122.677c0.416,0,0.832,0,1.256,0c0.545,0.968,1.709,3.253,0,3.775
		C433.944,126.278,433.37,123.963,434.089,122.677z"/>
	<path class="path" fill-rule="evenodd" clip-rule="evenodd" d="M202.311,123.305c0.999,3.344-0.514,8.465-4.085,7.225
		c0.375-1.763,2.561-4.313,2.826-7.225C201.471,123.305,201.891,123.305,202.311,123.305z"/>
	<path class="path" fill-rule="evenodd" clip-rule="evenodd" d="M410.848,123.932c-0.174,1.718-0.499,3.276-2.512,3.147
		C407.345,125.499,409.085,122.768,410.848,123.932z"/>
	<path class="path" fill-rule="evenodd" clip-rule="evenodd" d="M196.346,128.018c-0.443,1.975-0.992,3.829-1.26,5.97
		C191.571,134.116,193.278,126.036,196.346,128.018z"/>
	<path class="path" fill-rule="evenodd" clip-rule="evenodd" d="M370.327,128.335c0.387,1.831,0.054,5.145-0.31,7.225
		c-1.694,1.09-4.047,0.424-6.597,0.311c-4.434-0.205-9.714,0.764-12.248-0.628c0.748-2.156,3.646-1.165,5.65-1.255
		c3.45-0.151,7.581-0.537,10.993-0.318c0.719-0.537,0.113-2.391,0.317-3.45c-6.574-0.287-13.338,0.885-18.217,1.256
		c-0.478-3.654,5.915-3.269,10.046-3.458C363.73,127.844,367.959,127.292,370.327,128.335z"/>
	<path class="path" fill-rule="evenodd" clip-rule="evenodd" d="M437.229,127.708c5.598-1.839,6.453,6.158,1.566,4.705
		c-0.318-1.361,0.649-1.437,0.945-2.194c-0.099-0.431-0.787-0.265-1.256-0.31c-0.212,0.802,0.272,4.259-2.202,3.76
		C435.103,132.096,436.926,129.712,437.229,127.708z"/>
	<path class="path" fill-rule="evenodd" clip-rule="evenodd" d="M376.614,128.335c0.122,1.271-0.121,2.187-1.255,2.194
		c-0.545-0.5-1.144-0.946-0.946-2.194C374.837,127.889,376.191,127.889,376.614,128.335z"/>
	<path class="path" fill-rule="evenodd" clip-rule="evenodd" d="M191.318,129.274c0.991,1.558,0.9,6.347,0.313,7.542
		C188.969,137.157,188.734,129.267,191.318,129.274z"/>
	<path class="path" fill-rule="evenodd" clip-rule="evenodd" d="M416.182,130.53c-0.257,2.308-3.964,0.946-5.023,0.318c0-0.417,0-0.84,0-1.256
		C412.648,128.949,415.667,129.191,416.182,130.53z"/>
	<path class="path" fill-rule="evenodd" clip-rule="evenodd" d="M372.529,131.476c0.522,0,1.044,0,1.574,0c-0.092,0.507,0.295,0.544,0.31,0.938
		c0.59-0.03,0.22-1.036,0.946-0.938c0.877,0.06,1.339,0.544,1.255,1.566c-1.717,0.81-2.141-0.757-3.774,0.317
		C372.446,132.542,372.158,132.413,372.529,131.476z"/>
	<path class="path" fill-rule="evenodd" clip-rule="evenodd" d="M377.553,131.786c0.317,0,0.628,0,0.945,0
		C380.118,134.063,375.934,134.063,377.553,131.786z"/>
	<path class="path" fill-rule="evenodd" clip-rule="evenodd" d="M393.886,131.786c0.561-0.038,0.659,0.386,1.257,0.317c0,0.416,0,0.84,0,1.256
		c-0.401,0.431-1.483,0.431-1.884,0C392.986,132.353,393.75,132.391,393.886,131.786z"/>
	<path class="path" fill-rule="evenodd" clip-rule="evenodd" d="M187.865,133.042c-0.58,2.353-0.833,6.362-3.458,5.659
		C184.309,136.869,185.027,131.914,187.865,133.042z"/>
	<path class="path" fill-rule="evenodd" clip-rule="evenodd" d="M202.625,133.042c-0.364,2.678-2.792,3.283-5.023,4.085
		c-0.272-0.258-0.189-0.863-0.628-0.946C198.07,134.524,200.257,132.406,202.625,133.042z"/>
	<path class="path" fill-rule="evenodd" clip-rule="evenodd" d="M211.419,136.816c1.29,1.574,4.842,2.429,3.768,5.334
		c-2.675-0.673-3.93-2.769-5.655-4.396c0.59-0.878,1.052-1.884,1.256-3.14c2.337-0.136,3.889,0.515,4.399,2.201
		c0.487-0.454,0.621-1.27,1.883-0.945c1.324,0.771,1.366,2.822,1.256,5.023c-0.787,0.461-1.23,0.764-2.198,0.318
		c0.19-1.801,0.254-2.315-0.314-3.768C214.329,140.107,213.56,136.915,211.419,136.816z"/>
	<path class="path" fill-rule="evenodd" clip-rule="evenodd" d="M376.925,135.243c0.257,1.408-0.561,1.748-1.565,1.884
		c-0.28-0.56-0.878-0.795-0.629-1.884C375.147,134.797,376.509,134.797,376.925,135.243z"/>
	<path class="path" fill-rule="evenodd" clip-rule="evenodd" d="M395.143,136.816c-0.863,0.614-1.339,0.614-2.202,0
		C392.465,134.486,395.627,134.486,395.143,136.816z"/>
	<path class="path" fill-rule="evenodd" clip-rule="evenodd" d="M195.086,136.499c0.877,1.521-0.046,4.562,0.941,6.597
		C192.57,145.056,192.102,136.551,195.086,136.499z"/>
	<path class="path" fill-rule="evenodd" clip-rule="evenodd" d="M201.679,137.444c-0.136,2.051-1.089,3.298-3.14,3.45
		C197.708,139.063,199.704,136.423,201.679,137.444z"/>
	<path class="path" fill-rule="evenodd" clip-rule="evenodd" d="M209.532,143.095c3.786-0.4,2.179,6.446-0.938,4.396
		C209.271,145.766,209.342,144.828,209.532,143.095z"/>
	<path class="path" fill-rule="evenodd" clip-rule="evenodd" d="M410.22,143.095c1.634-0.173,0.454,2.474,1.566,2.83
		c1.384-0.499,5.72-1.695,5.651,0.938c-0.303,0.008-0.242,0.386-0.311,0.628c-1.202,0.424-2.875-0.325-4.396,0.318
		c1.544,1.906,2.663,4.244,2.512,7.853c3.519,1.475,7.263-0.537,10.992,0c2.293,0.325,3.935,1.778,5.97,2.822
		c1.809,0.938,5.454,1.18,5.023,3.768c-4.524,0.877-6.832-3.692-11.62-4.396c-4.441-0.651-10.623,2.55-12.877-1.574
		c1.952-4.145-2.814-5.696-1.884-8.791c-0.938-0.424-1.657-1.074-2.201-1.884C409.01,144.609,408.813,143.05,410.22,143.095z"/>
	<path class="path" fill-rule="evenodd" clip-rule="evenodd" d="M103.692,156.282c-2.035,3.307-6.764,3.738-10.364,5.341
		c-3.491,1.559-7.059,4.101-10.675,4.085c1.249-3.23,5.622-4.184,8.792-5.651c3.496-1.634,7.248-3.072,10.678-4.396
		C102.902,155.608,103.095,156.146,103.692,156.282z"/>
	<path class="path" fill-rule="evenodd" clip-rule="evenodd" d="M343.01,160.367c0,0.53,0,1.052,0,1.574c-1.083,0.681-3.313,0.303-2.83-1.574
		C340.687,159.891,342.495,159.891,343.01,160.367z"/>
	<path class="path" fill-rule="evenodd" clip-rule="evenodd" d="M414.298,171.042c-0.28,0.144-0.56,0.28-0.628,0.636
		c-1.385-0.923-4.215-0.394-4.077-2.83C411.627,167.94,414.26,168.924,414.298,171.042z"/>
	<path class="path" fill-rule="evenodd" clip-rule="evenodd" d="M448.531,170.415c-0.696,2.133-3.103,2.549-5.334,3.147
		C441.896,170.966,446.844,168.992,448.531,170.415z"/>
	<path class="path" fill-rule="evenodd" clip-rule="evenodd" d="M69.146,171.988c-1.68,3.253-8.183,1.952-12.249,2.83
		c-1.857,0.401-3.106,2.065-4.399,0.627C54.756,171.397,64.629,171.693,69.146,171.988z"/>
	<path class="path" fill-rule="evenodd" clip-rule="evenodd" d="M380.692,176.383c0.197,1.408-1.968,1.566-2.822,0.946
		C377.288,175.241,380.375,174.877,380.692,176.383z"/>
	<path class="path" fill-rule="evenodd" clip-rule="evenodd" d="M387.289,175.763c0.712,2.262-2.821,2.451-3.14,0.938
		C383.938,175.196,386.396,175.166,387.289,175.763z"/>
	<path class="path" fill-rule="evenodd" clip-rule="evenodd" d="M447.275,176.383c0,0.53,0,1.052,0,1.574c-2.588,0.068-4.146,2.701-6.59,1.884
		C441.079,177.064,444.514,175.763,447.275,176.383z"/>
	<path class="path" fill-rule="evenodd" clip-rule="evenodd" d="M449.477,178.895c-0.212,2.664-2.322,3.957-2.201,6.287
		c0.121,2.171,3.207,3.465,2.201,5.961c-2.709,0.197-2.406-2.617-3.768-3.767c-1.611,2.163-2.231,5.311-5.341,5.969
		c-0.446-2.89,2.08-5.432,4.396-6.597C445.361,183.404,446.224,177.563,449.477,178.895z"/>
	<path class="path" fill-rule="evenodd" clip-rule="evenodd" d="M203.881,186.43c-0.061,4.539-8.564,4.645-10.993,2.202
		c0.439-2.33,2.701-0.635,4.085-0.628c1.861,0.015,2.909-0.469,4.706-1.256C202.602,186.347,202.821,185.03,203.881,186.43z"/>
	<path class="path" fill-rule="evenodd" clip-rule="evenodd" d="M378.498,192.089c-0.241,1.642-1.361,2.406-3.457,2.202
		c0.091-0.515-0.295-0.544-0.311-0.946C375.313,192.157,377.636,190.182,378.498,192.089z"/>
	<path class="path" fill-rule="evenodd" clip-rule="evenodd" d="M104.949,193.663c-0.931,2.829-4.472,3.177-9.109,4.395
		c-7.168,1.884-17.468,1.921-24.811,1.256c0.48-3.185,5.939-1.392,9.105-1.884c0.583-0.129-1.06-1.498,0-2.202
		c3.235-1.014,7.596-1.695,11.938-2.194C96.245,192.55,101.502,191.968,104.949,193.663z M81.394,197.43
		c6.389,0.211,11.496-0.863,16.02-2.512C91.384,195.062,86.201,196.061,81.394,197.43z"/>
	<path class="path" fill-rule="evenodd" clip-rule="evenodd" d="M227.121,205.275c-2.708,2.096-5.583,4.184-8.48,6.287
		c-2.724,1.974-5.67,4.781-9.109,5.023c0.291-3.057,4.358-4.562,7.225-6.598c3.019-2.133,6.037-4.615,9.109-5.969
		C226.331,204.398,227.265,204.292,227.121,205.275z"/>
	<path class="path" fill-rule="evenodd" clip-rule="evenodd" d="M438.166,209.988c0.046,3.08-2.897,5.561-4.705,7.854
		c-1.877,2.368-3.503,5.424-6.287,6.597c-0.591-3.192,2.429-5.129,4.085-7.225c1.718-2.171,3.133-4.735,5.023-6.597
		c0.084-0.34,0.629-0.212,0.629-0.628C437.334,209.988,437.75,209.988,438.166,209.988z"/>
	<path class="path" fill-rule="evenodd" clip-rule="evenodd" d="M370.018,224.438c-0.068,1.536,1.399,1.536,1.256,3.14
		c-0.696,0.454-1.514,0.795-2.83,0.628c-0.537-0.189,0.023-1.491-0.627-1.574c-1.324,0.439-2.747,2.164-4.706,0.946
		c0-0.522,0-1.044,0-1.566C365.933,226.012,366.575,223.818,370.018,224.438z"/>
	<path class="path" fill-rule="evenodd" clip-rule="evenodd" d="M87.677,236.376c0.208,0,0.417,0,0.628,0c3.578,1.574,2.961,6.385,2.198,10.675
		c-0.262,1.475,0.439,3.986-1.57,3.767c-0.007-0.303-0.385-0.242-0.627-0.318c-0.583-2.603,1.134-5.492,0.938-8.163
		C89.08,240.061,86.572,238.51,87.677,236.376z"/>
	<path class="path" fill-rule="evenodd" clip-rule="evenodd" d="M121.592,245.168c-0.983,3.207-6.654,3.026-10.36,3.767
		c-4.067,0.817-7.6,2.686-10.679,2.83c0.242-3.397,5.152-3.586,8.791-4.396C113.686,246.393,118.199,244.32,121.592,245.168z"/>
	<path class="path" fill-rule="evenodd" clip-rule="evenodd" d="M112.174,257.734c-3.442,2.912-13.172,1.157-17.59,1.248
		c0.31-3.442,6.861-1.649,11.938-1.876C108.984,256.985,111.356,256.023,112.174,257.734z"/>
	<path class="path" fill-rule="evenodd" clip-rule="evenodd" d="M93.328,275.943c2.557,0.59,3.987,2.292,4.396,5.023
		c-0.423,0.628-0.871,1.225-2.194,0.946C95.877,279,92.125,278.675,93.328,275.943z"/>
	<path class="path" fill-rule="evenodd" clip-rule="evenodd" d="M162.108,282.858c-2.024,4.115-10.209,6.559-15.074,6.279
		c0.613-2.641,4.251-2.678,6.597-3.458c2.603-0.855,4.918-1.619,6.593-3.14C161,282.495,161.738,282.487,162.108,282.858z"/>
	<path class="path" fill-rule="evenodd" clip-rule="evenodd" d="M97.724,287.254c0.212,0,0.419,0,0.627,0c3.003,1.725,3.859,7.217,4.085,10.674
		c-4.206-0.605-2.406-7.225-5.023-9.419C97.277,287.852,97.625,287.677,97.724,287.254z"/>
	<path class="path" fill-rule="evenodd" clip-rule="evenodd" d="M124.108,299.812c-2.134,0.969-4.846-0.847-7.539-1.566
		c-2.785-0.741-6.053-0.711-8.163-2.202c0-0.318,0-0.627,0-0.945C113.944,295.122,121.44,295.878,124.108,299.812z"/>
	<path class="path" fill-rule="evenodd" clip-rule="evenodd" d="M105.576,304.525c-2.11-0.196-4.017-2.497-2.829-4.085
		C104.676,300.675,106.408,302.565,105.576,304.525z"/>
	<path class="path" fill-rule="evenodd" clip-rule="evenodd" d="M375.041,304.207c2.663,1.324,6.098,3.541,6.907,5.659
		C379.277,311.031,374.496,307.316,375.041,304.207z"/>
	<path class="path" fill-rule="evenodd" clip-rule="evenodd" d="M552.813,310.805c-0.28,0.144-0.561,0.28-0.628,0.628
		c-3.042-0.931-4.435-3.519-5.651-6.279C549.77,304.669,551.436,308.391,552.813,310.805z"/>
	<path class="path" fill-rule="evenodd" clip-rule="evenodd" d="M104.949,306.1c0.521-0.008,1.044,0,1.573,0c0.439,0.982,1.324,1.884,0.625,3.139
		C105.148,309.428,104.46,307.446,104.949,306.1z"/>
	<path class="path" fill-rule="evenodd" clip-rule="evenodd" d="M106.522,311.433c0.204,0,0.416,0,0.625,0c2,1.18,3.465,4.456,2.826,7.225
		C107.263,317.984,106.548,313.748,106.522,311.433z"/>
	<path class="path" fill-rule="evenodd" clip-rule="evenodd" d="M372.84,317.402c2.692,0.975,3.866,3.465,6.914,4.084
		C379.437,325.488,370.789,320.42,372.84,317.402z"/>
	<path class="path" fill-rule="evenodd" clip-rule="evenodd" d="M109.033,319.604c0.417,0,0.836,0,1.256,0c0.839,1.406,1.793,3.843,1.256,5.65
		C108.848,325.391,108.67,321.486,109.033,319.604z"/>
	<path class="path" fill-rule="evenodd" clip-rule="evenodd" d="M52.812,333.735c-6.82,0.802-11.972-6.681-19.47-6.279
		c0.961-5.303,7.347-0.574,11.303,1.566C47.974,330.823,52.1,331.133,52.812,333.735z"/>
	<path class="path" fill-rule="evenodd" clip-rule="evenodd" d="M113.115,334.991c-1.921-1.748-1.91-5.424-3.143-7.853
		C112.839,325.164,115.532,333.682,113.115,334.991z"/>
	<path class="path" fill-rule="evenodd" clip-rule="evenodd" d="M143.267,331.852c-4.853-0.296-12.191-0.787-16.02-3.14c0-0.318,0-0.628,0-0.946
		c0.253-0.06,0.314-0.317,0.628-0.31c2.084,0.045,5.647,1.074,8.481,1.566C138.962,329.476,143.169,328.893,143.267,331.852z"/>
	<path class="path" fill-rule="evenodd" clip-rule="evenodd" d="M33.656,334.363c0.416,2.436-4.445,1.771-5.337,0.938
		C28.33,332.615,32.593,334.151,33.656,334.363z"/>
	<path class="path" fill-rule="evenodd" clip-rule="evenodd" d="M386.979,342.836c0.09,1.861-2.996,1.377-3.769,0.636c0-0.416,0-0.84,0-1.256
		C384.119,341.687,386.857,341.573,386.979,342.836z"/>
	<path class="path" fill-rule="evenodd" clip-rule="evenodd" d="M118.771,364.829c0.208,0,0.416,0,0.627,0c2.148,1.642,3.541,5.636,3.14,8.79
		C119.39,372.728,118.986,367.621,118.771,364.829z"/>
	<path class="path" fill-rule="evenodd" clip-rule="evenodd" d="M225.237,370.162c2.323-0.098,4.438,1.831,3.14,3.457
		c-1.728-0.158-2.53-1.24-3.453-2.201C224.882,370.858,225.306,370.76,225.237,370.162z"/>
	<path class="path" fill-rule="evenodd" clip-rule="evenodd" d="M233.4,376.759c-1.74,0.069-3.007-0.34-2.826-2.193
		C232.11,373.574,234.399,375.155,233.4,376.759z"/>
	<path class="path" fill-rule="evenodd" clip-rule="evenodd" d="M389.49,377.069c-0.166-2.905,3.746-2.996,4.078-1.248
		C393.939,377.735,391.141,379.157,389.49,377.069z"/>
	<path class="path" fill-rule="evenodd" clip-rule="evenodd" d="M36.796,395.604c-0.995,3.844-9.634,1.491-10.993-0.317
		C27.422,393.032,32.87,396.157,36.796,395.604z"/>
	<path class="path" fill-rule="evenodd" clip-rule="evenodd" d="M157.398,416.962c-0.355,2.966-4.872,4.153-7.853,5.333
		c-2.803,1.12-7.679,3.321-10.051,0.628c0.685-1.838,2.081-0.741,3.144-0.938c5.043-0.93,9.325-3.305,13.504-5.341
		C156.801,416.516,156.975,416.863,157.398,416.962z"/>
	<path class="path" fill-rule="evenodd" clip-rule="evenodd" d="M466.438,421.047c0.771-0.045,1.513-0.053,1.883,0.311
		c0.28,1.906-1.331,2.088-2.2,1.256C465.863,421.728,466.566,421.804,466.438,421.047z"/>
	<path class="path" fill-rule="evenodd" clip-rule="evenodd" d="M472.09,425.442c0.726-0.105,1.202,0.046,1.573,0.311
		c0.037,0.779,0.045,1.521-0.318,1.884c-0.415,0-0.839,0-1.255,0C471.644,427.22,471.644,425.858,472.09,425.442z"/>
	<path class="path" fill-rule="evenodd" clip-rule="evenodd" d="M469.889,429.21c-0.409,0.105-0.493,0.553-0.938,0.628
		C465.522,429.203,470.206,425.154,469.889,429.21z"/>
	<path class="path" fill-rule="evenodd" clip-rule="evenodd" d="M480.881,427.954c0.166,1.423-0.463,2.051-1.884,1.884
		C477.785,428.528,479.571,426.736,480.881,427.954z"/>
	<path class="path" fill-rule="evenodd" clip-rule="evenodd" d="M466.438,429.21c0.053,0.787-0.484,0.983-0.946,1.256
		C462.609,430.179,465.538,426.555,466.438,429.21z"/>
	<path class="path" fill-rule="evenodd" clip-rule="evenodd" d="M474.292,429.838c0.521,0,1.043,0,1.564,0c0.689,0.757,1.559,2.739,0,3.14
		C474.496,432.697,473.753,431.094,474.292,429.838z"/>
	<path class="path" fill-rule="evenodd" clip-rule="evenodd" d="M531.447,449.001c-0.362-0.378-0.356-1.111-0.317-1.892
		C533.089,445.794,534.398,449.493,531.447,449.001z"/>
	<path class="path" fill-rule="evenodd" clip-rule="evenodd" d="M533.649,451.505c0,0.529,0,1.053,0,1.574c-0.424,0.446-1.786,0.446-2.202,0
		C531.038,451.46,532.628,450.719,533.649,451.505z"/>
	<path class="path" fill-rule="evenodd" clip-rule="evenodd" d="M529.873,454.963c-0.37,0.362-1.104,0.354-1.884,0.317
		C526.296,452.92,530.622,451.55,529.873,454.963z"/>
	<path class="path" fill-rule="evenodd" clip-rule="evenodd" d="M541.502,457.164c-0.166,0.461-0.47,0.786-0.637,1.255
		c-1.399,0.251-1.739-0.559-1.884-1.572C539.701,455.516,540.979,456.006,541.502,457.164z"/>
	<path class="path" fill-rule="evenodd" clip-rule="evenodd" d="M296,216c0,0,0.314-0.313,0.754-0.628c-0.376-0.205-0.762-0.399-1.143-0.599
		C295.738,215.188,295.866,215.599,296,216z"/>
	<path class="path" fill-rule="evenodd" clip-rule="evenodd" d="M583.906,267.78c-1.831-8.435-0.296-16.977-2.831-23.868
		c-1.323-3.609-4.138-6.159-5.961-9.109c-2.525-4.07-4.168-7.452-7.225-10.683c-8.859-9.328-18.332-18.255-29.535-25.125
		c-0.28-0.658-0.484-1.392-0.938-1.884c-2.784-1.4-4.487-3.889-6.287-6.279c-7.626-6.763-17.99-11.65-25.125-18.845
		c-4.494-4.532-7.664-10.153-12.558-13.814c-2.014-1.514-4.729-2.625-7.227-4.085c-7.231-4.245-14.691-12.18-25.123-11.938
		c-0.561-0.689-1.748-0.765-2.513-1.256c-1.194-0.098-3.245,1.059-3.768-0.318c2.83-0.234,0.174-2.405,2.194-3.449
		c-0.877-1.007-1.074-2.694-0.938-4.714c0.211-0.62,0.952-0.711,1.255-1.256c-0.445-4.387,2.777-7.747,2.822-12.248
		c0.067-5.833-2.193-11.727-5.651-15.071c-1.195-0.643-1.218,1.453-1.573,0.621c-1.673-2.504-1.657-6.71-5.023-7.535
		c-0.204,4.417,3.631,7.459,4.085,12.248c-0.477-0.484-2.156-0.56-1.884,0.636c1.604,3.419,3.972,7.747,3.14,12.558
		c0.022-1.491,0.068-2.996-1.565-2.83c-1.052,1.218-0.704,6.022,0.627,6.915c2.073,0.605,0.688-2.248,1.566-2.83
		c0.976,1.815,0.658,4.698-1.884,4.713c0.234,4.767-3.049,9.154-1.884,11.931c-1.476,2.625-4.676,5.137-4.086,8.798
		c2.52,0.234,2.663-2.686,3.458-4.085c0.969-1.702,2.05-3.396,3.45-4.403c-0.349,1.823,0.847,2.096,1.573,2.83
		c1.21,0.356,2.762-0.56,3.14,0c-4.675,2.542-8.345,7.119-12.559,10.365c-0.862,0.666-2.367,0.991-3.14,1.891
		c-1.718,1.975-1.361,5.281-2.52,8.163c-1.369,3.42-3.752,6.59-3.14,10.365c-3.086,7.164-3.033,18.028-5.023,26.38
		c-0.922,3.896-2.262,11.333-5.023,11.938c-5.878,1.279-7.156-6.703-11.938-7.542c1.232-0.439,1.135-2.217,1.574-3.45
		c-2.475-2.157-0.825-5.024-0.946-8.171c-0.068-1.725-1.074-2.98-0.938-4.085c0.333-2.693,3.987-4.047,3.45-6.907
		c0.445-0.598,1.527-0.568,2.201-0.938c2.141-6.037,1.203-16.795,2.201-22.931c-3.237,0.431-2.595,4.743-2.829,8.163
		c-1.747-1.286-3.623-2.443-5.969-3.14c0.567-0.916,2.375-1.861,1.256-3.449c-2.36,0.045-2.595,2.216-4.396,2.822
		c-1.544,0.34-2.988-0.53-3.14,1.573c0.386,1.18,3.17,0.568,4.085,0.31c2.534,1.839,9.086,2.731,7.535,6.598
		c-1.482-0.78-0.765-1.861-1.574-3.141c-1.815-1.097-6.626-4.531-8.473-1.573c1.694,1.65,5.152,1.544,6.907,3.14
		c-0.28,0.56-0.877,0.802-0.628,1.892c1.415,0.567,2.655,1.316,3.768,2.194c0.363,1.43,0.462,3.594-0.628,4.396
		c-1.226-1.634-2.247-5.031-4.713-4.396c-0.341,2.489,2.488,4.388,3.767,6.287c-1.8,0.704-1.414,3.608-2.821,4.705
		c-1.535-0.188-1.8-2.443-3.458-1.565c-0.93,1.618,1.233,2.451,1.574,4.078c0.129,0.613-0.4,1.944-0.317,3.14
		c0.075,1.059,0.915,2.216,0.945,3.147c0.061,1.868-0.983,3.51-0.628,5.333c0.204,1.074,1.12,1.907,1.256,2.829
		c0.189,1.354-1.271,2.875,0,3.768c-1.898-0.893-4.176-0.151-5.969-0.627c0.182-2.066-0.099-3.67-0.628-5.024
		c0.317-0.628,1.392-0.5,1.256-1.574c-0.28-4.592,0.59-9.102-0.628-12.559c-0.461-1.324-2.194-1.861-1.566-3.457
		c0.628-0.515,1.899-0.393,2.194-1.256c-0.682-4.449,0.938-11.197-2.194-13.194c0.046-8.322-0.196-16.939,0.311-24.807
		c2.663-0.582,6.899,0.409,6.907-2.829c-1.664-0.538-5.183,0.96-6.59,0.627c2.496-7.777,1.31-16.795-3.146-21.667
		c1.868-1.347,0.242-4.267,0.627-6.907c2.943-3.972,5.584-8.239,9.737-10.992c-0.008,0.953-0.182,2.065,0.945,1.883
		c2.724-1.777,4.933-4.07,8.48-5.031c-0.128,1.74-2.397,2.731-1.256,4.713c4.033-1.528,4.948-9.479,10.993-6.907
		c-0.272,1.582-1.809,0.22-3.141,0.938c-1.323,0.96-3.003,2.897-4.084,5.03c-0.863,1.703-2.891,4.91-0.318,6.279
		c2.292-3.472,2.353-9.161,7.543-9.736c-0.038,1.536-1.574,2.897-0.628,4.395c3.82,0.167,1.876-5.447,3.449-7.535
		c3.995,7.717-3.836,15.35-4.396,23.551c-0.317-1.566-0.408-3.352-2.511-3.14c-0.696,1.952,0.732,4.259,1.255,6.597
		c0.529,2.375-0.061,5.583,1.885,6.908c2.057-1.354,0.295-5.273,0.317-7.536c2.814-0.953,1.725-5.81,3.14-8.17
		c-0.122,2.731-0.977,3.669,0.628,5.341c0.681,1.626-0.908,3.767,1.256,4.084c1.943-1.119,0.695-5.477,0-6.907
		c1.119-4.425,4.139-8.639,6.279-11c0.075,2.989-2.405,9.556,1.256,10.373c0.378-4.963,0.703-9.979,1.884-14.132
		c-2.951-0.923-1.066-6.68-5.334-6.287c-0.726,2.36,1.513,2.587,1.565,4.713c0.129,4.714-6.482,9.094-7.534,13.504
		c1.143-6.249,7.27-14.14,1.566-19.783c-7.589-1.498-12.158,2.11-17.582,3.768c-0.288-0.659-0.932-0.954-1.892-0.946
		c-3.586,2.27-7.468,4.259-10.047,7.542c-0.371-0.363-1.112-0.355-1.884-0.317c-2.936,2.405-4.177,6.506-3.768,12.249
		c-0.197,0.643-1.589,0.09-1.256,1.256c-0.182,3.109,1.777,4.085,2.512,6.279c-0.658,1.861-1.611,3.419-2.202,5.341
		c-6.248,0.182-11.083-1.06-17.271-0.938c-0.409-1.06-0.432-2.504-1.256-3.147c-4.116-0.802-10.055,0.22-14.133-0.628
		c3.685-0.271,5.734-2.261,7.853-4.078c1.377-1.187,3.261-2.474,1.884-4.084c-4.312,2.004-7.413,8.117-14.449,5.341
		c-0.567-2.202-2.459-3.435-3.768-5.341c-1.399-2.036-1.718-5.667-4.713-6.28c0.604,6,5.008,10.901,9.108,14.442
		c-5.145,0.394-13.905-2.299-15.706,2.202c-14.76-1.255-20.479,26.736-11.303,36.746c4.063,4.433,9.473,3.676,11.303,9.426
		c-6.566,0.122-13.603,1.46-19.155,1.566c0-0.522,0-1.044,0-1.566c1.506-0.121,3.154,0.848,4.396,0
		c1.143-0.839-0.848-2.057-0.311-2.201c1.15,0,2.3,0,3.45,0c-0.151,0.711-0.621,1.604,0,2.201c2.33,0.333,3.124-0.862,2.829-3.146
		c-1.854-1.453-4.229-0.726-7.534-0.939c0.045-12.535-1.181-27.046,0.31-38.945c2.346-0.484,6.71,1.059,7.535-0.939
		c-0.681-2.262-3.677-1.195-5.962-1.256c2.769-5.083,3.927-11.604,8.48-14.76c1.884-1.316,4.759-0.719,5.342-3.775
		c-10.093-0.832-12.415,11.431-16.651,18.535c-2.731-0.219-4.721,0.303-7.225,0.311c-1.468,2.451-3.14,8.352-0.629,10.992
		c1.34,0.673,1.581-1.309,1.884-0.627c0.424,9.706,0.008,22.983,0.629,30.465c-2.565-0.385-7.906-0.317-10.985,0.628
		c-0.303,2.565-1.831,11.878,2.504,10.674c1.248-1.551-1.173-1.61-0.628-3.449c1.468,0,1.044-1.892,1.573-2.83
		c0.621,0.636-0.166,2.679,1.574,2.201c1.74-0.552,0.666-3.207,0-4.084c-0.999-0.84-2.814,0.348-3.457-0.318
		c1.777-0.771,6.771-1.771,8.162,0c-0.892-0.06-1.709-0.03-1.565,0.946c0.787,3.042-1.892,7.702,0.938,8.792
		c2.088-1.499,0.303-8.096,1.255-9.737c1.007,0.272,0.977-0.491,1.573-0.627c0.235,3.335,0.932,7.142,0.312,10.365
		c-0.605-0.742-1.589-0.742-2.194,0c-0.478,3.926,1.316,10.115-1.884,11.31c-0.265-4.865,1.278-14.821-3.457-13.504
		c-3.487,0.969-0.522,8.564-1.257,12.559c-0.354-0.057-0.87-0.102-1.446-0.111c0.268,0.794,0.521,1.64,0.75,2.52
		c0.404,0.148,0.728,0.398,0.696,0.739c-0.202,0.036-0.362,0.03-0.508,0.01c0.235,0.991,0.431,2.025,0.576,3.086
		c0.254,0.28,0.076,13.782-0.386,14.804c-1.406,0.078-11.699-0.018-11.612,0c-2.177,3.292-6.671-1.006-9.424,0
		c0.06,3.186,4.1,2.391,6.279,3.45c-0.365,0.79,1.617,2.118,1.882,1.263c3.465,0.734,15.018,2.285,19.163,1.884
		c2.391-0.235,4.698-0.871,5.023-2.83c-0.446-1.831-2.148-2.337-1.256-4.713c-2.625-1.09-4.426,1.18-7.535,0.635
		c0.726-4.819-1.944-13.042,2.512-14.139c0-1.566,0-3.14,0-4.706c0.734,0.726,2.096,0.832,2.512,1.884
		c-1.195,2.043-2.217,4.275-4.396,5.341c-0.075,1.112,0.446,1.642,1.566,1.565c-0.59,0.561-1.809,0.484-1.884,1.574
		c-0.228,0.854,0.628,0.627,0.628,1.248c1.248,0.099,1.921-0.377,2.512-0.938c0.945,0.961-1.438,1.264-1.256,2.512
		c0.075,0.484,1.172,1.506,1.573,0.627c0.787,4.267,6.022,2.149,10.364,2.83c2.194-1.294,1.188-7.361,0.938-10.055
		c-1.173-0.121-1.838,0.258-1.884,1.257c-1.665-0.348-5.054-0.779-5.962,0c-0.923-0.538,0.712-1.135,0.311-2.194
		c2.678,0.06,4.115-1.127,5.023-2.83c-0.159-0.461-0.462-0.787-0.628-1.255c-1.748-0.174-1.649,1.49-3.14,1.573
		c0.151-2.156,2.246-2.368,2.83-4.085c-1.233-2.118-1.302-5.402-1.257-8.791c5.16,12.74,7.618,28.181,11.931,41.768
		c-3.186,0.318-5.228,1.037-7.854,1.256c-4.289-4.865-15.766-0.363-22.294-1.884c-2.913-1.907-5.916-3.722-9.107-5.341
		c0.004-0.125-2.135-1.395-2.201-1.255c-1.503-0.813-2.979-1.655-4.481-2.47C296.314,215.688,296,216,296,216
		c-0.134-0.401-0.262-0.812-0.389-1.228c-1.327-0.695-36.132-18.926-36.141-18.916c-1.241-0.537-2.164-1.399-3.768-1.566
		c-1.952,2.443-2.481,6.31-4.085,9.109c-0.106-1.468-15.698,0-16.961,1.566l0.317,0.31c2.213,2.564,5.991-0.063,8.965,0.157
		c2.104,0.156,4.841-0.617,6.499,0.192c0.442,0.923-0.727,2.291-0.704,2.798c-1.948,4.645-3.941,9.252-6.597,13.193
		c-4.513-2.239-14.064-1.974-18.841,0c-0.617,2.732-2.243,4.456-3.771,6.279c-4.191-0.098-3.162-6.324-7.535-4.403
		c-1.809-3.215-4.782-5.265-7.225-7.853c2.208-0.537,4.062-2.398,5.964-3.76c1.774-1.278,5.009-2.247,4.714-4.713
		c-2.599-0.296-4.611,2.11-6.594,3.45c-2.254,1.52-4.444,2.965-6.915,4.085c-2.012-1.12-3.839-2.436-4.395-5.023
		c3.589-1.854,6.703-4.184,10.992-5.341c-0.938-3.336-4.498-0.749-5.965,0c-2.308,1.172-4.332,2.671-6.283,3.14
		c-1.74-0.877-3.48-1.748-4.709-3.14c1.131,0.083,2.175,0.076,1.884-1.256c-0.22-1.332-2.58-1.173-2.826,0
		c-1.005-3.556-5.734-4.736-8.163-8.163c-0.775-1.09-1.357-2.883-2.519-4.403c-1.921-2.519-4.108-3.442-2.822-7.535
		c-1.165-1.347-2.784-2.247-4.713-2.822c0.435-4.6-3.567-8.904-3.14-13.512c-3.503-2.776-3.941-8.617-5.023-13.814
		c3.479-10.546,2.08-23.596-1.884-31.721c-1.831-3.746-4.361-8.61-8.171-8.481c1.857,3.404,4.256,6.173,5.97,9.736
		c1.687,3.51,3.208,7.271,3.457,12.248c-2.428-2.39-4.221-5.417-7.225-7.225c-0.431-3.23-0.699-6.628-3.767-7.225
		c-0.764,3.109,2.262,5.038,1.884,8.798c5.651,3.677,11.866,10.508,8.163,19.783c-2.013-3.011-3.117-6.93-6.28-8.791
		c-1.199,4.032,3.987,6.816,4.71,10.984c-5.913-3.927-13.645-6.854-20.097-10.047c-2.043-1.006-4.524-3.374-6.916-2.194
		c3.182,4.214,9.007,5.871,14.137,8.163c5.231,2.345,10.64,4.441,14.135,8.48c0.171,2.346,1.256,5.433,1.256,6.908
		c-3.759-1.801-6.416-6.9-10.682-6.908c1.952,5.447,8.413,6.733,12.249,10.683c3.333,3.419,3.374,9.729,5.341,14.132
		c-5.719,0.621-11.204,1.044-15.706,2.822c-2.689,1.067-4.729,3.359-7.535,4.396c-3.095,1.15-7.445,0.197-9.109,3.767
		c11.561,0.673,16.845-7.648,27.955-8.473c-5.602,3.563-11.398,8.004-18.532,10.047c-1.093,0.31-3.098-0.317-3.771,1.256
		c1.74,2.625,5.008,0.771,6.915,0c6.725-2.716,12.963-6.869,18.528-10.047c0.287-0.552,0.106-1.565,0.627-1.883
		c2.164,0.711,6.306,1.535,4.396,4.388c-1.953,0.098-3.729-1.982-5.337-0.31c1.869,3.329,4.94,1.921,7.221,3.458
		c1.838,1.233,2.088,3.449,3.458,5.651c1.754,2.83,5.81,4.426,8.163,7.542c2.307,3.049,3.964,5.455,7.224,7.217
		c1.453,6.922,10.092,6.658,12.877,12.249c-7.025,2.338-13.036,7.225-11.621,16.961c-4.373-1.679-6.136-5.636-10.047-8.163
		c-3.821-2.474-8.825-3.124-12.566-5.659c-2.295-1.551-4.021-4.623-6.279-6.589c-2.58-2.248-4.948-3.859-8.167-5.031
		c-1.827-2.883-4.082-5.341-8.167-5.962c-3.208-2.118-2.266-5.189-4.396-8.171c-2.61-3.653-9.022-4.554-8.794-10.364
		c-4.899-13.663-10.686-28.681-16.02-41.769c-0.673-1.657-0.901-4.804-3.45-5.023c-0.658,3.208,1.902,5.818,2.512,8.791
		c-1.166-0.718-1.007-2.761-3.14-2.511c-1.396,2.308,2.069,3.941,1.88,5.023c-2.655,0.507-4.63-1.143-6.594-0.311
		c0.409,3.564,5.791,2.164,9.423,2.512c1.426,1.815,2.618,5.545,2.826,7.535c-2.299-1.361-5.772-2.413-9.109-3.449
		c-2.908-0.909-7.001-3.208-9.108-0.946c2.647,2.058,6.521,2.633,10.05,3.768c3.613,1.172,7.293,2.058,9.737,4.403
		c5.821,8.677,4.978,20.161,10.678,27.636c2.497,3.268,9.305,5.242,8.167,11.303c1.737,2.943,4.732,2.837,7.54,4.396
		c2.171,1.21,3.094,3.911,5.022,5.341c2.504,1.861,5.266,2.723,7.536,4.713c2.096,1.831,3.677,4.54,5.969,6.279
		c2.732,2.066,6.718,2.315,9.423,4.714c-1.873,5.212-6.892,10.379-5.027,17.271c-3.904,3.738-9.57,5.713-12.559,10.365
		c3.609,3.851,0.553,10.32,0,15.388c-1.384-0.128-2.599-0.083-2.202,1.573c1.063,1.324,5.062-0.544,6.912,0.628
		c-0.155,4.766-3.772,6.067-7.225,7.535c-0.22,1.37,0.533,1.771,0.313,3.14c-4.479,0.999-10.622,1.899-11.303,5.66
		c3.678-0.008,7.089-2.943,10.989-3.776c-2.75,2.648-0.825,6.377-0.627,10.055c0.094,1.792-0.484,3.964-0.628,6.279
		c-0.488,7.867,0.344,18.278-0.313,25.125c-0.266,2.761-1.65,4.509-1.884,6.597c-0.454,4.017,1.332,7.573-2.197,8.798
		c-1.79-1.043-4.891-0.764-6.912-1.573c-2.292-3.987-0.756-9.646-2.198-13.504c-0.768-2.051-2.795-2.655-3.143-4.714
		c0.269-1.513,1.305-2.254,1.574-3.774c-4.426-6.983-2.89-19.928-6.598-27.636c1.408-7.066,5.724-13.988,6.283-22.295
		c0.151-2.277-0.321-4.532-0.313-6.907c0.015-9.585,3.579-16.296,4.082-24.497c0.094-1.536-0.053-3.17,0-4.713
		c0.041-1.241,1.365-3.458-0.628-4.396c-2.261,0.877-0.854,5.424-1.884,7.535c-1.661-3.76,0.321-8.148-0.941-11.621
		c2.091-3.495,3.461-7.414,5.969-10.364c1.369-1.62,3.927-2.028,4.396-4.396c-3.094-1.098-5.36,1.907-6.597,3.457
		c-2.511,3.14-4.214,9.185-6.907,12.248c-2.613,2.958-7.588,3.715-12.88,5.023c-8.825,2.171-19.772,7.127-29.206,2.512
		c-0.28-0.667-0.491-1.4-0.945-1.884c-13.357-3.609-19.875-13.633-25.753-24.187c-0.696-1.248-1.327-3.889-3.453-3.768
		c1.165,7.846,8.007,14.39,11.306,20.101c-3.358-2.942-5.771-6.778-8.48-10.364c-6.726-8.912-13.935-18.029-19.783-27.326
		c-1.177-1.861-2.024-4.555-4.4-5.334c-1.063,2.073,0.988,4.124,1.888,5.652c7.482,12.74,17.839,24.368,25.435,35.489
		c-15.184-9.048-35.97-19.965-38.001-41.768c-0.635-6.832,0.821-11.651,4.085-15.079c6.139-6.46,14.764-11.907,23.241-16.643
		c4.146-2.323,6.957-6.219,10.993-8.799c4.017-2.564,8.941-4.025,13.503-6.597c8.466-4.759,15.706-10.667,26.066-13.814
		c4.785-1.453,10.202-3.086,14.446-5.652c5.765-3.487,10.327-7.497,18.532-6.597c1.229,0.258,2.379,1.695,3.453,0.311
		c-0.533-3.283-5.016-3.011-9.108-2.512c-5.69,0.704-9.487,3.98-14.442,6.908c-4.248,2.511-9.608,3.881-14.137,5.341
		c-9.63,3.124-17.006,8.367-25.438,13.504c-4.24,2.587-8.833,3.934-12.876,6.287c-3.995,2.322-6.847,6.392-10.679,8.791
		c-8.223,5.144-16.14,9.571-23.245,15.706c-3.435,2.973-6.709,7.293-6.279,11.621c-2.988,11.234-5.057,23.959-6.597,35.807
		c-0.56,4.305-2.753,8.353-3.14,11.931c-0.333,3.094,1.176,4.372,1.256,6.279c0.068,1.543-0.969,3.23-0.942,4.713
		c0.099,4.766,3.083,9.184,2.197,14.45c-1.898,1.967-1.558,6.181-1.569,10.046c0.813,2.702,3.506,4.018,4.082,7.225
		c0.938,5.183-3.011,11.87,0,16.961c-1.286,4.237-2.065,9.775-1.884,14.76c0.163,4.41-0.318,9.078,0.317,13.187
		c0.228,1.482,1.32,2.814,1.256,4.396c-0.09,2.027-1.868,4.842-2.829,7.542c-0.439,1.241-0.711,2.625-1.255,3.769
		c-0.568,1.202-1.74,2.026-2.198,3.14c-0.81,1.967,0.169,4.183,0,6.278c-0.129,1.627-0.942,3.519-1.256,5.342
		c-0.987,5.719-2.198,10.766-2.516,16.023c-0.313,5.243-0.953,11.061-1.251,14.753c-0.28,3.404,0.745,6.619,0.942,9.107
		c0.381,4.865-0.723,9.608,0.31,14.133c-0.847,0.484-1.937-0.515-2.193,0.945c0.594,4.826-0.95,10.092,3.139,11.621
		c-3.93,3.321-3.086,8.692-3.768,13.813c-0.435,3.254-1.679,5.516-1.573,8.171c0.091,2.119,1.29,4.063,1.573,6.597
		c0.167,1.521-0.442,3.594,0,5.334c0.753,3.011,5.182,6.726,7.849,7.225c8.28,1.559,10.943-5.425,15.074-7.225
		c3.874-1.68,5.077,0.333,7.539,1.892c-2.046,1.089-4.577,2.057-7.221,2.821c-2.693,0.788-6.063,0.59-7.853,2.512
		c2.716,1.793,7.081,0.182,10.674-0.938c3.011-0.939,8.129-2.437,8.481-5.342c0.227-1.838-2.481-5.697-3.454-8.48
		c-1.168-3.344-1.131-7.255-1.884-10.047c-0.613-2.285-2.3-4.123-2.511-6.279c-0.314-3.178,1.048-5.598-0.632-8.48
		c3.541-2.338,5.251-9.328,3.144-14.45c3.817-1.611,4.6-6.385,5.965-10.675c1.063-3.344,2.845-6.869,3.458-9.736
		c1.581-7.377-0.658-15.153,0-23.24c0.443-5.478,2.031-11.765,2.512-16.962c0.484-5.251,2.908-5.546,4.084-9.427
		c0.727-2.406,0-5.054,0.311-7.845c0.926-8.277,4.94-16.304,7.853-23.869c2.849-7.398,8.148-13.95,9.736-21.985
		c3.692,6.983,8.303,13.05,11.935,20.101c0.007,0.734-0.541,0.923-0.314,1.884c6.282,7.739,5.484,18.664,9.108,29.202
		c1.445,4.206,3.548,8.829,5.337,13.822c1.812,5.054,5.67,8.594,6.283,12.877c0.507,3.569-0.31,7.065,0,10.363
		c0.462,4.956,2.962,10.1,4.082,15.389c2.247,10.599,4.759,17.885,7.854,26.697c0.261,0.886-0.443,0.81-0.314,1.574
		c1.071,2.27,1.778,4.918,3.14,6.906c-0.855,3.692,2.848,6.28,3.14,9.737c0.113,1.316-0.847,2.974-0.938,4.705
		c-0.098,1.831,0.742,3.949,0.628,5.659c-0.17,2.489-2.342,4.668-1.888,7.226c1.207,0.469,1.509,1.837,1.259,3.761
		c4.26,4.054,10.471,2.686,16.33,2.828c3.128,0.076,6.401,1.694,10.05,1.885c5.251,0.265,11.621-1.809,16.644,0
		c1.529,0.553,2.292,1.738,3.768,1.884c1.249,0.119,2.406-0.614,3.772-0.629c3.355-0.038,7.008,0.825,10.05,0.629
		c-3.136,21.137-7.376,42.366-12.248,61.559c-0.73,2.868-2.296,7.497-0.628,9.426c3.03-1.263,1.506-7.081,3.767-9.108
		c10.948-4.948,22.674-6.136,33.292-10.055c10.459-3.858,20.317-8.881,30.152-13.504c20.056-9.434,41.288-15.834,62.491-24.497
		c2.301,4.306,7.981,1.498,10.364-0.944c1.233,0.234,0.849,2.088,2.513,1.884c1.014,0.394,0.241-1.014,1.256-0.628
		c9.585,4.933,19.336,8.912,28.899,13.512c18.937,9.108,36.352,20.888,55.582,29.202c9.752,4.213,20.041,7.369,29.528,12.876
		c1.226,2.543-0.349,7.891,2.821,8.48c0.228-8.617-1.861-17.922-2.511-27.636c-1.113-16.682-2.331-33.666-3.45-48.683
		c6.718,2.201,14.275,2.284,22.295,2.511c11.272,0.334,24.284,8.14,32.667,0.318c-0.969-7.135-0.122-15.94-5.031-19.792
		c0.72-1.996,0.326-5.121,1.257-6.906c1.173,0.514,3.094,0.265,4.713,0.317c1.99-1.574,3.033-4.085,4.086-6.598
		c-0.039-0.907-1.726-0.158-1.574-1.255c6.99-19.489,12.793-43.978,13.193-69.413c0.137-8.753,2.958-14.646,7.536-19.466
		c2.76-2.912,4.932-6.422,7.853-8.162c1.831,7.384,2.806,15.615,7.225,20.411c-1.815,4.289,0.053,9.048,0.31,13.504
		c0.099,1.619-0.537,3.186-0.31,4.706c0.432,2.95,2.845,4.713,3.768,6.915c0,1.149,0,2.299,0,3.45
		c1.975,2.11,3.102,5.068,4.396,7.853c-0.794,15.584-1.09,34.906-2.823,51.822c-0.384,1.294-2.275,1.082-2.519,2.512
		c0.372,3.82-0.673,6.233-0.628,9.736c-2.775,2.656-3.532,8.322-8.163,8.163c0.144,1.469-0.619,2.02,0,3.146
		c-0.483-0.378-1.225-1.006-1.884-0.317c-0.718,0.325,0.152,2.24-0.627,2.512c-0.628,0.129-2.331,0.78-2.829,0
		c-0.341-2.541,3.207-1.194,2.829-3.767c-2.671-1.923-6.271,1.996-4.713,5.341c-6.848,8.64-25.587,5.395-29.838,16.644
		c-0.477,3.275,0.445,6.832,2.829,8.48c3.487,2.405,10.319,4.01,15.705,4.396c4.691,0.333,10.168,0.228,15.071-0.317
		c6.898-0.757,12.86-4.29,19.79-4.705c3.957-0.243,7.77-0.198,11.31-0.628c1.733-0.212,5.766-4.328,3.141-6.28
		c-1.551,0.1-1.981,2.77-3.141,3.45c-1.421,0.841-3.35,0.522-5.34,0.629c-12.809,0.718-27.371,6.642-40.202,5.658
		c-5.622-0.439-10.759-2.414-15.389-4.403c-0.272-1.823-1.535-2.647-1.573-4.705c2.618-0.402,4.335,1.633,6.279,2.503
		c4.835,2.187,8.707,1.885,14.449,1.265c4.199-0.462,8.475,0.067,12.877-0.317c10.796-0.939,22.144-6.583,32.667-5.024
		c1.815-1.702,1.286-3.518,0.945-5.658c-0.438-2.77-0.371-5.569-1.255-8.475c-0.788-2.58-2.724-5.106-1.574-7.542
		c10.16,0.9,12.119-9.586,11.311-17.581c6.066-14.965,5.923-36.73,5.023-56.536c-0.477-10.433-1.938-18.732-2.512-27.955
		c-0.961-15.417,1.778-32.266,2.829-47.102c3.109-3.797,7.414-6.408,10.675-10.054c0.31-3.526,0.833-8.072,0.317-12.876
		c2.254-1.098,5.183-1.513,6.589-3.458C586.183,273.553,584.396,270.042,583.906,267.78z M452.927,136.181
		c-0.129-0.65,0.219-0.824,0.317-1.255c0.65,0.091,0.295,1.172,0.945,1.255C454.114,136.999,453.645,135.757,452.927,136.181z
		 M453.244,110.747c2.625-0.197,0.4-3.949,0-5.023c2.209,1.347,3.29,6.551,4.396,10.047c0.083,1.028-1.218,0.666-1.256,1.573
		c0.598,1.657,1.815,4.985,0,6.279C455.34,119.325,455.083,114.242,453.244,110.747z M325.102,136.816
		c-1.876-1.157-0.915-3.986-0.31-5.968C325.519,132.209,324.898,134.925,325.102,136.816z M325.102,213.446
		c0.644-0.129-0.688,1.959,0.318,2.194c-4.797,1.77-13.065-0.318-19.155-0.311c0.567-0.794,1.823-0.892,2.193-1.883
		C311.991,214.656,320.699,214.346,325.102,213.446z M320.707,189.578c-0.47-0.999-0.644-5.009-0.629-7.535
		C320.555,183.041,320.722,187.05,320.707,189.578z M326.986,207.477c-0.242-0.28-0.334-0.711-0.312-1.256
		c2.096,0.212,5.024-0.409,6.598,0.31C332.547,208.779,328.877,206.267,326.986,207.477z M333.583,203.082
		c-0.56,2.05-4.813,0.416-6.908,0.938c0.069-0.984-0.211-2.3,0.312-2.822C326.698,203.218,331.639,202.294,333.583,203.082z
		 M326.048,192.406c1.514-2.572,0.757-7.413,0.938-11.31c2.958,0.81,1.028,6.514,1.891,9.419
		C327.243,190.364,326.925,192.807,326.048,192.406z M327.304,168.22c-0.356-0.113,0.174-1.127,0.317-2.511
		c1.09-10.811-1.059-24.133-0.317-35.489c-1.006-1.165,1.369-0.96,2.512-0.945c-0.832,12.309,0.053,27.121-0.311,38.945
		C328.771,168.22,328.037,168.22,327.304,168.22z M423.406,214.384c-0.091,0.643-0.848,0.621-0.938,1.256
		c-0.424-0.204-0.591-0.666-0.629-1.256C422.362,214.384,422.884,214.384,423.406,214.384z M421.212,216.586
		c-0.604,0.862-1.398,1.535-1.883,2.511c-0.878-1.218-2.475-1.709-4.403-1.884C416,215.988,419.162,216.843,421.212,216.586z
		 M403.623,222.237c3.487-0.136,8.904,0.522,12.876,0.946c-0.28,1.899-2.723,1.755-4.713,1.884
		c-2.883,0.182-6.802,0.045-9.109-0.318C403.131,224.105,405.469,223.244,403.623,222.237z M407.072,207.167
		c5.471-0.455,10.139,1.513,12.566,5.023c-1.188,2.724-7.898,1.529-7.225,5.341c0.28,1.574,1.694,1.574,3.458,2.194
		c-3.949,1.535-9.427,0.015-14.761-0.311c-6.045-0.371-13.505-0.969-19.791-0.318c-0.136-2.375-0.953-4.063-1.256-6.279
		c3.488,0.204,8.034,0.938,10.992,0.628c1.635-0.968-0.212-3.639,0-4.085c2.867,0.371,5.568,0.575,5.659-2.512
		c1.771,0.855,6.968,1.316,7.535-0.938c-0.803-2.609-5.682,0.356-7.225-0.945c-0.84-1.362,0.166-4.57-0.628-5.97
		c3.108,0.348,4.743,2.171,8.48,1.884c0.695,2.882,0.25,6.256-0.628,8.48c0.099,0.741,0.968,0.704,1.256,1.256
		C406.884,210.321,407.262,209.028,407.072,207.167z M372.84,231.346c0.015-0.537-0.228-0.81-0.628-0.938
		c3.623-1.929,6.732-4.373,11.938-4.713c-2.58,2.549-6.937,3.321-7.535,7.853c-0.733,0-1.467,0-2.201,0
		c0.28-0.56,1.157-0.522,1.256-1.256C375.366,230.937,374.163,230.968,372.84,231.346z M344.575,222.555
		c5.606-1.203,10.984-2.633,16.334-4.085c1.475,0.886-2.315,3.072-0.311,4.713c-5.651,0.446-10.077,3.366-15.705,2.829
		C345.415,224.544,344.515,224.272,344.575,222.555z M373.785,222.555c0.265-0.061,0.295,0.121,0.318,0.311
		c1.618,0.227-1.257,0.363-1.264,0.946c0.408,1.989,0.408,1.467,0,3.457c-5.039,4.509-16.031,1.936-24.179,1.565
		C355.734,225.437,365.676,224.915,373.785,222.555z M375.041,188.322c-0.983-0.152-1.286,0.385-1.566,0.938
		c-0.62-0.742-0.741-1.975-0.945-3.14c5.311-0.636,6.317,5.008,8.163,8.798c-1.256,0.727-3.866,0.106-5.651,0.31
		c-0.469-0.892-0.658-2.065-0.938-3.14c0.249-1.112,1.648-1.066,1.565-2.511C375.896,188.723,375.048,188.941,375.041,188.322z
		 M369.072,174.189c6.801,0.423,13.89,0.56,20.729,0.938c-0.598,0.659-2.413,0.099-1.884,1.884c1.68,1.445,6.612-0.621,9.109,0.628
		c-7.014,1.392-19.413,1.399-27.009,0.317c0.969-1.709,6.082,1.18,6.907-1.256C376.327,173.841,369.89,176.83,369.072,174.189z
		 M368.443,171.36c0.272-0.053,0.295,0.121,0.318,0.317c1.12,0.144,4.502-0.333,4.078,0.31
		C371.516,171.64,368.754,172.729,368.443,171.36z M394.514,144.352c2.21,1.771,2.618,5.333,4.714,7.225
		c-0.371,3.396,0.583,8.117-1.256,10.046c0.158-0.461,0.461-0.794,0.628-1.256c-0.824-1.165-2.451-1.536-4.403-1.573
		c0-1.778,0-3.556,0-5.334c1.128,1.392,0.779,4.244,3.147,4.396c1.656-1.74-1.354-3.753-0.945-6.279c-0.22-0.25-1.756-0.704-1.885,0
		C393.576,149.481,394.681,146.727,394.514,144.352z M399.855,179.522c-0.696-0.461-0.137-4.886-0.317-6.906
		C400.233,173.084,399.674,177.503,399.855,179.522z M399.228,146.863c-1.544-2.126-3.056-4.267-4.714-6.287
		c1.316,0.575,3.791-0.015,5.024,0.636C399.613,143.277,398.985,144.631,399.228,146.863z M396.088,161.313
		c-0.196,0.666-1.937,0.287-2.202,0C394.257,160.465,395.521,161.313,396.088,161.313z M398.6,163.507
		c1.294,0.696,0.333,3.646,0.628,5.341c-1.294,0.916-3.299,1.104-5.659,0.938c-0.188-2.277,0.242-3.941,0.317-5.961
		C395.362,163.621,397.646,164.233,398.6,163.507z M397.344,172.616c-4.524,1.263-11.817-0.114-16.961-0.311
		C384.846,172.344,392.403,172.003,397.344,172.616z M396.716,180.468c0.477,1.09,2.315,1.416,3.14,1.256
		c0.446,3.178-3.094,0.968-3.768,0.946c-8.474-0.287-7.648,6.779-7.853,15.388c-2.837-2.512-3.254-7.429-7.543-8.48
		c-0.265-3.957,5.992-2.981,4.713-6.908c-2.579,0.765-4.78,1.915-5.969,4.078c-1.906-0.287-2.005-2.383-3.45-3.14
		c-2.27-0.696-3.034,1.43-4.085,0.946c-0.129-1.445-0.749-2.398-0.945-3.774C379.565,180.704,388.575,181.013,396.716,180.468z
		 M383.522,194.918c-0.1,0.424-0.787,0.257-1.256,0.31c-0.038-0.56,0.385-0.658,0.31-1.256
		C383.303,193.875,382.932,194.88,383.522,194.918z M386.351,199.314c-2.92,1.127-7.391-0.56-10.054,0.31
		c-0.484-0.453-0.658-1.217-0.628-2.193C379.497,197.786,385.224,196.25,386.351,199.314z M389.173,202.144
		c3.223-3.753-0.552-12.505,2.513-16.023c2.133-2.437,4.334-0.197,8.17-0.311c0,2.194,0,4.396,0,6.597c-0.521,0-1.052,0-1.573,0
		c-0.311,1.332-0.56,3.436,0,4.706c-1.521-0.68-4.532-0.423-5.023,0.946c-0.272,1.422,1.565,0.734,1.565,1.884
		c-0.908,1.808,0.28,5.72-0.628,7.535c-3.178-0.378-6.552-0.567-6.907-3.768c-3.449-0.847-10.621,2.035-10.675-2.193
		C380.685,201.833,385.193,201.727,389.173,202.144z M389.49,210.934c-3.086,0.877-6.71-0.409-10.054-0.317
		c-0.688-1.506-1.203-3.193-1.566-5.023c3.949,0.197,10.047-0.651,8.791,3.768C387.297,210.193,387.743,211.214,389.49,210.934z
		 M378.809,219.415c-4.056-0.167-8.436,2.012-12.876,2.512c0.348-2.338-1.166-2.815-1.884-4.085
		c4.606-0.84,9.411-1.483,13.821-2.512C378.536,216.344,378.847,217.706,378.809,219.415z M377.87,224.748
		c-0.681,0.378-1.551,1.506-2.201,0.946C376.357,225.332,376.955,223.932,377.87,224.748z M377.553,221.927
		c4.115-1.083,8.133,0.658,10.993,1.884c-0.72,0.847-2.338,0.802-3.141,1.565c-0.507-0.431-0.333-1.543-0.945-1.884
		C381.441,223.697,379.051,223.258,377.553,221.927z M388.235,221.299c1.611-0.976,3.631,0.333,5.65,0
		c-1.089,0.688-2.072,1.483-3.457,1.884C390.58,221.669,389.203,221.692,388.235,221.299z M402.367,185.81c0.204,0,0.416,0,0.628,0
		c1.43,1.4,0.234,5.417,0.628,7.854c-0.582-0.576-0.779-1.528-1.574-1.884C402.246,189.88,402.496,188.034,402.367,185.81z
		 M402.049,183.608c0-0.416,0-0.84,0-1.255c0.522,0,1.052,0,1.574,0c0,0.521,0,1.044,0,1.573
		C403.26,183.661,402.783,183.51,402.049,183.608z M405.507,197.741c0.673,0.499-1.112,1.172-2.201,0.946
		C403.086,196.855,404.871,198.852,405.507,197.741z M404.251,126.134c0.507,0.749,0.605,1.907,0.938,2.83
		c-0.954,0.227-0.924-0.545-1.884-0.318C403.472,127.655,403.857,126.898,404.251,126.134z M402.049,131.157
		c1.96,0.568,3.08-0.93,3.775-0.627c-0.105,4.191-1.627,8.163-1.892,12.876c-0.4,7.293,0.817,15.698-0.31,22.931
		c-0.045,0.257,0.061,2.443-1.256,2.194c-0.673-0.719,1.203-3.178,0.628-5.651c-0.325-1.393-0.946-1.43-1.573-2.512
		C401.271,150.268,401.709,140.758,402.049,131.157z M401.422,171.042c0.952-0.34,3.185-0.59,4.085,0
		c-0.22,3.261,0.325,5.75,0.317,8.799c-0.945,0.416-2.406,0.318-3.775,0.318c-0.514-2.731,1.104-7.596-0.938-8.798
		C401.051,171.095,401.232,171.064,401.422,171.042z M401.111,193.973c0.378,0.477,0.613,2.708,0,3.14
		c-1.271-0.197-0.855-2.073-0.945-3.449C400.673,193.572,400.71,193.958,401.111,193.973z M349.917,128.964
		c1.301-0.272,0.37-2.777,1.573-3.14c9.948-0.114,18.671,0.999,28.574,0.938c1.68-0.106,0.432,2.708,1.884,2.83
		c5.727,0.764,11.953,1.021,17.907,1.565c0.212,2.732-0.311,4.721-0.317,7.225c-18.748-0.916-42.858-0.567-62.498-0.627
		C339.151,132.882,343.319,126.361,349.917,128.964z M342.691,163.507c-7.497-2.436-8.541-14.585-6.597-23.55
		c7.118,0,14.237,0,21.356,0c0.644,10.273-3.653,15.599-8.79,20.101c-0.916-2.671,1.482-3.624,0.938-5.969
		c-0.537-2.346-3.563-3.798-4.078-6.597c0.779,0.272,2.315,2.497,2.822,4.085c1.725-0.046,1.967,1.384,3.457,1.566
		c0.855-2.603,0.129-9.918-1.573-11.93c-1.656-0.091-0.674,2.466-0.938,3.767c-1.316-1.203-0.295-4.729-2.829-4.713
		c-1.377,0.787-0.196,3.51,0.318,4.395c-0.008,1.15-1.635,0.666-1.257,2.202c-1.066-0.605-0.544-2.807-2.201-2.829
		c-2.225,1.453,0.121,4.062,0.945,5.651c0.977,1.892,1.945,4.283,3.458,5.031c-2.414-1.438-6.778,0.166-5.969,4.705
		c0.756-0.128,0.68,0.576,1.565,0.318c0.991-0.983,0.803-4.153,2.829-3.14c0.591,0.598,0.031,0.787,0,1.574
		c0.159,1.203-1.891,0.204-1.884,1.248c0.054,1.316,1.104,1.62,2.194,1.892C345.604,162.44,343.44,162.266,342.691,163.507z
		 M344.575,165.081c8.579-4.827,15.978-10.826,15.078-25.125c10.75,0.03,21.796-0.235,31.722,0.62
		c1.475,0.136-0.855,1.007-0.318,2.202c0.159,5.599-0.575,10.312-0.628,15.706c-1.369-1.498-1.929-3.858-2.822-5.968
		c-0.764-1.794-1.202-4.744-3.457-5.024c-0.809,7.498,7.226,11.877,5.651,21.357c0.046,0.689,0.795,0.673,1.574,0.628
		c-14.026,1.354-28.007-1.717-42.087-0.318C348.048,167.471,346.603,165.981,344.575,165.081z M359.024,171.36
		c-1.936,0.68-5.311-0.083-7.225,0.627c-0.688,0.053-0.998-0.257-0.938-0.946c3.449,0,6.907,0,10.364,0
		C362.127,171.572,359.615,171.3,359.024,171.36z M331.699,176.383c10.235-1.982,24.55-2.466,34.861-2.821
		c0.332,0.324,0.65,2.239,0,2.511c4.88,11.038,6.559,25.268,10.992,36.745c-11.62,2.193-22.673,4.962-33.915,7.535
		C340.505,205.063,335.277,190.19,331.699,176.383z M339.862,227.268c2.231,1.021,6.885-0.394,6.597,3.14
		c-3.639-0.447-8.163,0-10.992-1.256C335.61,227.063,339.764,229.877,339.862,227.268z M337.04,235.741
		c-0.129,1.445-0.529,2.618-1.256,3.457c-7.202,2.051-17.892,0.621-25.442,0c0.272-1.301,1.302-1.838,1.573-3.14
		C318.792,238.775,329.414,236.256,337.04,235.741z M333.583,228.833c-2.172,3.375-11.424-0.325-13.505,3.14
		c2.452,2.171,8.126-0.128,11.939,0.318c-3.769,1.324-10.017,1.612-14.769,0.938c-1.309-0.371-0.553,1.324-1.248,1.574
		c-1.264,0.211-1.793-0.303-2.829-0.318c0.59-2.134,1.921-3.518,2.512-5.652C321.576,228.97,328.681,228.638,333.583,228.833z
		 M256.645,197.112c18.49,9.252,36.397,19.08,54.326,28.899c-0.197,0.636-1.589,0.083-1.257,1.256
		c0.175,1.498,1.778,1.573,3.458,1.565c-1.029,2.966-3.064,6.076-5.341,9.427c-2.422,3.556-4.318,8.474-9.735,8.792
		c-13.583-2.747-29.334-3.329-43.02-5.97c0.135-1.082-0.129-1.762-0.318-2.511c-4.879-2.443-12.006-2.648-16.958-5.023
		c3.34-2.209,11.609,0.515,14.446-2.202c1.052-5.863-4.399-5.228-8.167-6.279C248.939,216.419,253.161,207.137,256.645,197.112z
		 M210.16,224.438c3.661,0.242,4.872,4.842,8.794,5.023c-0.389,1.392-2.553,1.006-2.197,3.14c2.231,1.165,4.584-1.801,5.969-3.45
		c1.618-1.952,2.931-4.554,3.767-6.597c6.132-0.061,10.894-0.492,16.016,0.628c-0.545,1.778-1.32,1.437-3.14,0.938
		c-4.399,0.802-8.405-0.31-11.306-0.628c0.843,4.827,6.767,2.406,10.988,2.83c2.606,0.265,9.245,1.543,10.997,3.458
		c-4.906,1.059-12.646-0.711-15.075,2.822c-1.217-0.076-2.186-1.589-3.457-0.628c0.625,3.155,5.41,3.73,8.48,4.714
		c4.177,1.347,8.863,2.322,12.563,3.457c-8.919,4.191-18.826-2.292-27.012-0.628c0.192,2.065,2.75,1.324,4.085,1.566
		c2.875,0.538,6.09,1.831,8.795,2.202c-5.613,0.159-9.453,3.45-13.818,4.085c-10.319,1.49-16.436-9.79-25.443-9.737
		C198.282,231.271,205.537,224.136,210.16,224.438z M184.093,232.602c3.431,0.651,4.873,3.298,6.911,5.341
		c-4.131,2.89-7.92,6.105-11.62,9.426C178.2,240.946,182.909,237.701,184.093,232.602z M174.042,254.276
		c6.12-4.652,12.808-10.069,18.845-15.078c0.964,0.553,4.252,3.73,4.396,0.318c0.733,3.011,4.611,2.98,6.283,1.884
		c7.297,2.277,11.889,9.101,20.415,8.473c2.482-0.174,5.054-1.649,7.849-2.504c5.111-1.566,10.649-1.566,17.59-1.892
		c1.282-0.03,0.663-1.966,0.942-2.194c8.746,0.621,18.248,1.876,27.955,3.14c7.978,1.036,15.868,2.905,21.981,2.511
		c4.801-0.31,5.8-5.008,8.789-7.853c5.205,1.12,17.507,2.209,24.187,1.256c4.676-0.666,6.105-3.441,6.279-8.791
		c-0.824-1.188-1.604-0.477-2.829-1.256c3.14-0.553,10.523,1.853,12.565-1.256c5.387,0.689,11.242,0.893,16.962,1.256
		c0.961,1.339,2.527,2.073,3.45,3.45c1.565,0.325,4.267-0.417,6.286,0c1.899,0.393,3.353,2.421,5.334,3.147
		c2.262,0.816,5.334,0.476,8.17,1.255c2.49,0.681,4.698,2.61,6.908,3.14c2.428,0.583,5.129,0.076,7.853,0.31
		c4.864,0.424,9.744,2.565,14.132,3.14c2.558,0.34,7.256,0.741,9.419,0.635c3.003-0.159,5.803-2.028,8.799-2.201
		c2.746-0.159,5.47,0.771,8.163,0.627c4.607-0.249,7.346-2.95,11.311-4.713c4.804,3.208,9.244,7.914,14.132,11.938
		c4.88,4.018,10.667,7.066,14.442,11.931c-35.118-3.352-70.487,0.409-105.522-3.45c-31.729-3.502-63.435-1.074-94.845,0.311
		c-38.719,1.702-77.079-2.02-116.207-2.83C169.398,256.917,171.932,255.88,174.042,254.276z M458.268,239.516
		c0.408-0.855,1.611-0.908,1.884-1.884c1.157,1.877,1.726,4.351,3.14,5.962C461.914,243.186,459.924,240.689,458.268,239.516z
		 M166.818,274.378c0.438-3.98,2.648-7.801,1.574-12.249c-0.031-0.447-0.053-0.893,0.313-0.946
		c46.91,1.952,95.434,4.857,144.149,1.884c23.542-1.438,47.086-1.21,70.668,1.573c33.604,3.965,68.738-1.551,101.126,2.512
		c-0.265,3.646,0.416,7.921,0,10.674c-12.777-1.838-25.632,0.946-38.63,0.946c-13.224,0-26.485-0.946-39.884-0.946
		c-26.517,0-53.056,0.522-79.46-0.938C274.193,273.984,219.904,276.026,166.818,274.378z M475.539,337.186
		c-2.239,1.044-2.557,5.318,0,6.286c-0.249,2.974,0.613,4.834,1.574,6.59c-1.635,14.291-2.406,28.703-5.343,42.094
		c-0.944,4.334-1.558,9.085-2.82,12.868c-0.387,1.149-1.498,2.323-1.885,3.458c-0.673,1.967-0.067,4.047-0.627,5.969
		c-0.561,1.898-4.812,7.247-6.598,8.163c-2.247,1.149-4.842,0.083-7.225,1.256c-2.322,1.143-2.231,4.191-4.713,5.658
		c-5.78,3.428-11.749-0.128-17.9,0c-5.703-28.324-8.556-59.493-11.938-90.141c2.058-2.853,1.717-7.914,3.146-11.931
		c0.803-2.285,2.679-4.298,3.45-6.597c0.228-0.666-0.228-1.74,0-2.513c0.567-1.906,3.632-4.894,4.086-7.224
		c0.476-2.468,0.098-7.815-1.256-9.109c-1.938-1.861-5.153-0.605-8.481-2.202c-4.222-2.02-4.396-5.568-4.396-12.558
		c0-2.104,0.984-5.137-1.256-6.597c-2.118,2.595-0.37,9.048-0.945,13.194c-4.448-0.787-6.635-3.835-8.791-6.915
		c0.484-2.655,2.647-3.631,2.512-6.907c13.398,0.439,26.501,0.378,39.257,0.938c7.558,0.333,14.632-0.832,21.985-1.256
		c6.248-0.355,11.741-0.068,17.589,0.318c0.757,2.942,2.088,5.068,3.457,7.535c1.248,2.254,3.844,4.842,4.077,6.916
		c0.304,2.625-2.215,6.982-3.456,10.046c-3.533,8.761-10.6,18.157-13.188,26.381C475.229,332.918,474.956,335.157,475.539,337.186z
		 M470.206,421.047c0.226,0.295,0.567,0.478,0.938,0.628c0.992,0.045,1.082-0.81,1.257-1.574c1.648,0.659,2.548,2.059,4.402,2.513
		c-0.288,0.56-1.278,0.4-0.946,1.573c0.061,0.25,0.317,0.311,0.312,0.628c1.074,0.129,1.792-0.098,1.572-1.256
		c1.771,0.326,2.489,1.695,4.396,1.884c0.047,3.389-0.839,5.863-0.938,9.108c-4.789,5.273-17.695-1.444-20.729-5.658
		c-1.732-2.391,0.629-5.228,3.769-5.97c-0.727-2.897,2.519-3.479,3.14-5.961c1.83,0.159,2.238,1.74,3.767,2.202
		C470.69,419.647,469.881,419.783,470.206,421.047z M402.049,318.976c-3.472,0.355-6.521-2.36-8.79-4.403
		c3.147-8.262,6.809-16.009,9.418-24.807c1.99,3.564,5.811,5.288,9.737,6.907c0.423,9.525,1.112,18.785,1.884,27.955
		c-1.37,2.08-4.236,2.67-6.589,3.767c-2.043-1.731-3.14-4.402-4.714-6.589c1.226-2.027,4.396-2.104,5.023-4.722
		C406.073,314.405,404.5,318.719,402.049,318.976z M397.972,367.022c1.497-0.174,1.573-1.777,1.566-3.45
		c-0.099-0.362-0.969-1.482-1.256-0.635c0.521-1.785,3.313-4.002,5.023-5.651c0.477,2.882-2.513,5.023-2.194,8.799
		c-6.408,2.179-3.881,13.292-10.364,15.388c-0.417-0.628-1.393-0.703-2.201-0.945c-1.408,0.272-2.248,1.104-2.513,2.511
		c-0.628-0.128-2.33-0.771-2.822,0c-2.209-2.73-0.053-8.306-3.774-9.101c0.938-7.55-5.516-10.388-6.597-16.962
		c3.071,2.293,4.131,8.058,8.48,7.226c1.49-0.288,2.467-2.232,3.457-2.52c2.005-0.567,4.268-0.053,5.97,0.635
		c1.149,0.462,3.813,4.094,6.279,1.256C397.835,364.375,396.141,366.758,397.972,367.022z M386.351,432.978
		c-3.063-3.079-1.104-12.021-1.573-18.527c0.311-1.369,2.096-1.256,2.829-2.202C387.486,417.84,383.681,426.585,386.351,432.978z
		 M389.801,437.063c-2.042,0.991-3.192-1.619-3.45-3.457C387.667,434.596,387.939,436.625,389.801,437.063z M384.46,411.311
		c-0.545-1.536,3.192-4.002,1.264-5.97c-4.32,2.338-6.885,12.764-6.915,21.04c-0.015,5.462,0.378,12.528,5.341,12.883
		c-3.374,1.726-5.197-3.532-5.969-6.604c-1.839-7.361,1.028-19.837-2.821-25.125c-2.255,0.212-0.757,3.246-0.629,4.713
		c-10.946-0.779-12.717-10.734-23.24-11.93c2.231-6.665,5.628-12.165,8.473-18.218c6.854,0.046,15.191,1.347,19.163-2.202
		c2.172,1.136,0.628,3.617,1.257,5.342c0.938,2.61,4.062,2.701,6.597,3.768c-0.106-2.156-0.114-4.244,1.566-5.97
		c1.286,0.189,2.012,0.924,2.201,2.202c-1.506-0.144-2.384,0.341-2.83,1.256c1.536,3.299,6.99,0.03,4.713-3.458
		c1.302-0.165,2.315-2.276,3.14-1.883c0.674,4.91-0.719,8.76-1.256,12.884c-0.552,4.198-0.136,7.762-1.573,10.046
		C390.784,407.505,387.115,408.7,384.46,411.311z M384.46,436.435c-5.311-1.974-2.534-14.646-2.193-20.729
		C382.849,422.568,381.229,431.563,384.46,436.435z M338.296,421.047c0,0.628,0,1.248,0,1.876c-0.771,0.855-0.099-2.867,0-3.132
		c0.779-2.224,3.442-3.374,3.458-6.287c0.007-1.898-0.855-2.647-1.892-5.022c1.717-2.474,4.274-4.108,7.225-5.342
		C345.476,409.17,342.706,416.766,338.296,421.047z M340.18,434.233c-0.371,0.847-1.634,0-2.194,0c0-1.354,0-2.724,0-4.078
		C339.302,430.927,338.75,433.567,340.18,434.233z M337.985,406.598c-1.444,1.823-1.876,4.546-3.457,6.597
		c-0.877,1.135-2.338,1.437-3.457,2.512c-2.164,2.072-6.635,7.021-7.225,10.364c-0.272,1.551-0.561,4.668,0,6.907
		c0.445,1.785,2.057,2.005,2.201,3.457c-0.37-0.59-2.346-1.195-2.201,0.311c-1.899-3.723-0.22-11.061-0.311-16.016
		c7.065-4.69,4.396-16.197,5.341-25.753c0.636-6.453,5.092-8.117,4.706-15.705c-0.234-4.714-2.096-9.237-1.565-13.815
		c0.544-4.721,3.132-7.164,5.65-10.991c0.363-0.054,0.56,0.067,0.628,0.31c-1.929,6.786-6.188,17.045-1.573,23.869
		c-0.355,1.285-2.164,1.83-1.256,3.457c2.829-0.461,6.354-2.822,11.938-2.202c3.125,0.356,6.075,3.307,9.737,2.202
		c-2.746,6.15-5.984,11.81-8.48,18.218C344.507,401.438,340.763,403.071,337.985,406.598z M329.815,369.534
		c-0.25,1.468-3.003,6.84-4.396,6.915c-2.262,0.121-4.835-8.064-5.969-10.993c-1.771-4.592-2.966-9.018-4.078-12.565
		c-2.641-8.375-6.31-16.772-9.108-24.179c-6.444-17.037-10.272-34.173-16.96-49.939c0.053-0.363-0.068-0.56-0.318-0.628
		c23.004-0.605,45.625,1.906,68.464,2.512c1.861,2.013,3.466,4.282,5.342,6.279c-2.542,5.152-4.381,10.644-6.597,16.333
		c-2.035,5.243-5.213,10.017-7.535,15.388c-3.549,8.201-5.713,17.098-9.109,25.442c-1.104,2.708-1.944,5.878-3.14,8.163
		c-1.543,2.958-4.418,4.971-5.651,7.853C329.422,363.218,330.345,366.478,329.815,369.534z M236.544,286.308
		c1.048-2.428,1.078-6.007,0.628-9.109c5.443,0,10.886,0,16.329,0c-0.367,1.257-0.976,2.444,0,3.458
		c0.987,0.144,1.286-0.394,1.574-0.946c-0.909,10.721-3.435,22.537-4.714,33.923c-3.99-7.209-8.053-14.351-12.248-21.356
		C238.424,289.455,237.486,287.874,236.544,286.308z M251.618,322.115c6.291,11.083,10.338,24.42,15.706,36.427
		c-5.651-1.157-12.509-3.82-18.535-5.651C250.404,343.298,250.524,332.222,251.618,322.115z M257.27,327.456
		c-1.654-3.374-4.57-7.097-5.024-10.054c-0.423-2.762,0.771-6.855,1.256-10.048c1.43-9.418,3.178-18.936,4.085-29.209
		c0.265-0.25,0.186-0.863,0.628-0.946c8.729,0.696,18.709,0.136,27.95,0.319c0.333,0.96,0.711,3.359,2.193,4.084
		c9.737,32.244,21.446,62.513,32.349,93.591c-16.418-5.568-33.8-10.175-50.558-15.396
		C265.644,349.402,262.538,338.169,257.27,327.456z M391.375,322.426c-0.741-1.021-1.37-2.997-0.318-4.079
		C391.783,319.089,391.171,321.162,391.375,322.426z M383.84,305.153c2.088-1.149,4.342,2.897,5.961,1.256
		c0.81,1.815,0.711,4.524,0.946,6.907C386.994,312.053,387.168,306.848,383.84,305.153z M388.235,337.503
		c-2.414-0.105-4.54-0.492-7.226-0.317c2.323-4.789,5.425-10.486,7.854-14.133C386.979,327.676,392.033,333.349,388.235,337.503z
		 M372.84,297.928c-0.636-1.445-0.409-3.775-2.513-3.768c-1.943,1.105,0.462,2.565,0.629,4.714c0.303,3.768-1.756,8.526,3.147,8.163
		c1.059-2.33-3.057-3.125-1.264-6.279c2.603,0.644,3.14,3.352,6.914,2.829c0.598,2.641,3.541,2.943,4.706,5.023
		c-0.099,4.236,4.85,4.926,5.03,7.846c-0.582,1.241-0.922-0.477-2.511,0c-0.817,1.422,0.446,2.141,0.627,3.457
		c-3.185,5.613-6.218,11.371-9.426,16.962c-4.184,0.211-8.087,0.128-9.419-2.512c2.429-4.834,2.414-11.999,3.14-19.474
		c0.311-3.229,2.292-7.172-1.256-8.79c-1.657,0.74-0.182,2.291,0,3.767c-1.702,7.815-0.658,18.399-4.713,23.869
		c-0.621,2.973,1.77,4.146,2.829,6.279c1.316,2.655,0.711,6.483,3.45,7.853c-1.938,4.229-4.502,7.845-5.962,12.559
		c-9.896,3.192-19.92,6.257-28.899,10.365c-1.219-6.711,5.924-14.442,1.884-19.156c7.293-22.333,17.188-42.07,25.442-63.443
		c1.074,1.755,0.938,4.721,3.457,5.031c1.188-2.338-1.302-6.167-2.512-8.171c-0.091-1.74,1.369-3.306-0.318-4.085
		c-1.754-0.189-1.611,1.536-1.883,2.83c-1.468-0.417-2.021-1.748-2.512-3.14c9.464,0.401,18.065,0.136,27.637,0
		c0.544,8.14,1.149,16.228,1.573,24.497C385.663,301.438,376.933,302.014,372.84,297.928z M376.614,339.076
		c-0.733,2.504-2.458,4.032-3.14,6.59c-2.171-1.18-1.626-5.076-3.147-6.907C371.1,338.933,374.458,339.235,376.614,339.076z
		 M378.498,377.705c-4.305,2.807-10.818,2.413-17.271,1.884c1.823-6.242,4.584-11.537,6.907-17.272
		c1.119-0.453,2.021-1.119,3.45-1.263c1.808,3.775,4.909,6.12,5.659,10.682C377.598,373.931,376.751,376.025,378.498,377.705z
		 M358.397,379.589c-7.316,0.106-11.878-3.337-19.474-1.256c-0.204-1.997-1.399-2.996-1.573-5.023
		c8.549-3.919,18.239-6.68,27.326-10.055C363.443,368.301,360.213,374.073,358.397,379.589z M370.018,356.976
		c1.135-0.302,0.439,1.233,0.628,1.884c-0.446-0.03-0.893-0.053-0.945,0.311C368.784,358.633,370.411,358.027,370.018,356.976z
		 M372.212,353.519c0.31-1.369,1.09-2.263,1.573-3.457c0.204,3.366,3.556,3.563,5.023,5.658c-1.112,0.038-1.785,0.515-2.512,0.938
		C374.398,356.151,374.118,354.025,372.212,353.519z M376.297,350.062c2.383,1.18,4.721,2.398,7.543,3.147
		C381.146,354.752,377.355,352.218,376.297,350.062z M375.669,346.611c1.037-2.526,2.292-4.827,3.768-6.907
		c2.853-0.817,6.098,0,8.799,0.311c0.461,4.456,3.918,5.916,4.705,10.047C387.335,353.904,379.784,349.767,375.669,346.611z
		 M390.119,339.076c3.903-3.699,0.227-11.567,0.938-15.396c2.156,5.696,1.688,14.019,2.202,21.357
		C391.329,343.934,391.284,340.945,390.119,339.076z M392.94,308.921c-1.157-8.995-1.347-18.959-2.193-28.264
		c4.184-0.317,8.64-0.363,12.876-0.628c-0.189,0.96-0.666,1.634-0.946,2.511c-0.007,1.408-0.923-0.688-2.193,0
		C401.194,292.762,395.8,300.395,392.94,308.921z M406.452,331.224c3.246-0.522,5.221-2.315,8.163-3.14
		c-0.59,3.503,1.748,7.255,0.945,10.357c-0.56,2.148-4.576,4.781-5.968,4.713C405.477,342.95,406.573,336.322,406.452,331.224z
		 M414.926,299.502c1.028,1.044,3.548,1.958,5.03,3.767c0.644,0.787,1.037,2.647,1.884,3.768c0.637,0.847,1.68,1.354,1.885,1.884
		c0.598,1.565,0.748,4.721,0.31,6.279c-0.938,3.412-5.886,3.556-7.226,7.226C415.622,315.344,415.266,307.431,414.926,299.502z
		 M426.235,308.293c-0.665-1.952-3.207-2.027-2.829-5.023c1.188-0.242,1.506,0.386,2.512,0.317c0.59,1.816,0.734,4.078,0.628,6.59
		C426.062,311.138,426.273,308.815,426.235,308.293z M421.84,320.541c-0.975,3.428-4.01,7.505-4.085,12.876
		C415.251,327.721,418.314,322.894,421.84,320.541z M234.656,293.533c-3.208,6.188-2.254,13.988-2.826,21.984
		c-0.631,8.821-3.347,17.869-3.453,26.063c-0.061,4.827,0.889,8.943-2.829,11.311c-5.886-0.915-12.399-1.203-18.841-1.573
		c0.521-27.848,9.037-47.7,11.306-73.8c2.398,0.832,8.261-0.977,10.051-0.319c1.297,0.478,0.59,0.583,0.631,1.884
		c2.062,3.904,3.776,8.155,6.279,11.62c-1.036,0.598-2.625-1.876-4.084-0.938C230.647,292.52,233.393,292.292,234.656,293.533z
		 M246.276,381.473c1.143-0.53,2.527-0.825,4.085-0.945c0.901,3.729-3.223,2.436-3.14,5.341c-3.593-0.741-5.863-0.098-8.48-0.31
		c-7.974-0.659-12.112-7.324-19.473-8.171c-4.921-0.567-8.882,0.445-11.621-2.822c0.886-3.828,1.665-7.77,2.202-11.938
		c4.01,3.245,9.563,8.428,16.326,5.961c0.545-0.703,0.765-1.747,0.628-3.133c1.99,0.1,2.965-0.81,5.026-0.627
		c4.517,5.946,12.778,8.155,18.218,13.186c-4.816,2.95-11.617-2.442-16.33-1.256C235.458,380.777,242.668,379.331,246.276,381.473z
		 M224.61,364.201c-0.598,0.923,0.09,1.944-0.314,2.512c-5.673,0.778-9.498-2.8-12.566-5.659c-0.328-2.429,0.522-5.334,0-6.907
		c4.006-0.854,8.273,0.733,12.252,0.945c0.765,3.216,2.72,5.235,4.082,7.846C226.796,363.248,225.343,363.36,224.61,364.201z
		 M207.02,322.735c0.969,0.893-0.325,2.179,0,3.465C206.082,325.338,207.44,324.119,207.02,322.735z M209.222,277.518
		c1.948-0.606,4.623,0.446,6.907,0c-1.21,13.133-4.622,24.057-6.907,36.116c-0.223-6.423-0.621-15.773-0.628-23.558
		c-0.007-2.277,0.752-4.366,0.628-6.279c-0.128-1.877-1.483-3.685-0.317-5.341C209.203,278.031,208.646,277.691,209.222,277.518z
		 M234.656,285.052c-2.3-1.778-2.455-5.712-4.709-7.535c1.055-0.727,3.449-0.114,5.026-0.319
		C235.083,280.642,235.042,282.049,234.656,285.052z M161.167,345.666c-1.335-4.888,1.037-8.845,1.57-13.194
		c0.359-2.897-0.307-6.029-0.314-9.419c-0.015-8.103,1.756-17.348,1.257-24.179c-0.114-1.573-1.052-3.465-0.942-5.023
		c0.208-2.859,2.909-4.879,1.887-8.171c3.571-1.134,7.301-3.79,6.279-8.481c11.061-0.385,23.362,0.72,35.175,0.628
		c0.711,3.654,0.525,7.187,0.314,11.311c-0.446,8.685,0.968,17.407,0,26.063c-0.31,2.776-1.577,5.432-1.883,8.17
		c-0.288,2.543,0.128,5.53,0,8.481c-0.266,6.029-2.716,11.325-1.884,17.271c0.212,1.521,1.331,2.807,1.569,4.396
		c0.866,5.788-0.503,13.655-1.569,20.101c-2.947,17.749-6.31,37.6-8.799,55.273c-2.261,0.173-4.032-1.415-5.96-1.884
		c-1.99-0.477-4.199-0.031-5.97-0.628c-5.235-1.756-7.557-6.59-12.876-8.474c-1.597-2.595-3.182-5.197-6.598-5.969
		c2.421-1.906,0.576-4.335,0.314-6.915c-0.17-1.688,0.491-3.602,0.314-5.023c-0.669-5.417-5.568-9.025-7.854-12.248
		c1.196-3.487-0.922-6.726,0-10.047c3.473-0.091,6.258-0.87,8.482-2.201c1.565-10.418-4.339-18.316-5.97-26.691
		C158.307,347.201,160.637,347.338,161.167,345.666z M156.458,370.48c0.669,0.893,1.671,0.521,2.825,0.311
		c-0.234,1.074,1.275,0.4,0.942,1.573c-1.789-0.22-2.606,0.529-4.399,0.311C156.552,372.13,156.975,371.501,156.458,370.48z
		 M158.969,374.565c-0.715,0.954-2.977,0.37-4.082,0.938C155.436,374.376,157.542,374.815,158.969,374.565z M161.794,370.162
		c-1.46-0.325-4.725-2.618-5.337,0c-0.25-1.044-1.548-2.224-2.826-1.256c0.265,1.514,0.529,3.034,1.884,3.458
		c-2.051,1.142-2.24-2.391-2.516-3.458c-1.184-4.584-2.568-10.531-3.14-15.697c2.349-0.417,4.218-0.605,6.598-0.318
		C158.046,358.837,160.754,363.672,161.794,370.162z M149.546,347.239c2.209,0.303,4.706,0.317,6.279,1.256c0,0.734,0,1.468,0,2.193
		c-2.239-0.037-4.44-0.037-6.279,0.318C149.546,349.752,149.546,348.495,149.546,347.239z M131.018,236.376
		c5.365-0.711,9.866-2.285,12.877-5.341c0.355,0.061,0.174,0.311,0,0.311c-1.037,5.977,2.076,10.894,1.884,16.333
		c-0.156,4.32-2.535,9.282-2.83,14.45c-0.234,4.145,0.438,8.458,0,12.249c-0.522,4.493-3.257,8.336-3.454,12.241
		c-2.144-4.759-2.402-11.41-4.081-16.644C138.743,256.424,129.15,249.533,131.018,236.376z M55.327,214.702
		c2.553,2.065,4.88,3.17,6.279,4.395c-5.397-0.567-12.933-1.717-16.329-5.341c0.45-0.568,3.211-4.116,4.395-4.078
		C50.98,209.716,53.652,213.348,55.327,214.702z M36.168,185.492c0.934,2.519,1.57,5.341,2.197,8.171
		c-1.21-0.053-1.453-1.067-2.825-0.946C35.744,190.304,36.27,188.216,36.168,185.492z M40.567,197.741
		c-1.309-0.265-4.706-1.158-5.659-2.822C37.201,195.456,39.104,196.379,40.567,197.741z M34.284,197.741
		c3.374,1.543,6.964,2.875,9.733,5.03c-1.362,0.083-3.835-0.847-5.961-1.573C36.338,200.608,33.047,200.191,34.284,197.741z
		 M20.776,440.203c3.136,3.04,6.847,5.507,13.823,4.713C29.862,449.342,21.525,446.656,20.776,440.203z M45.904,427.009
		c0.893,5.644,1.88,10.402,4.082,14.761c-3.298-3.73-11.083-2.604-13.19,1.572c-3.302-1.982-6.885-0.241-9.737-1.255
		c-2.205-0.788-5.193-3.594-5.965-5.97c-1.188-3.654,0.552-7.694,0.31-12.248c-0.272-5.107-0.571-10.146,1.888-14.132
		c4.656,2.261,13.59,1.18,19.469,1.256c1.249,2.783-0.019,5.605,0.318,8.48C43.374,422.038,45.477,424.3,45.904,427.009z
		 M42.451,408.791c-2.333,0.515-14.344,0.363-16.647-0.31c-2.398-0.704-3.416-3.609-4.399-4.086c0.28-1.505,0.696-4.532,0-5.961
		c5.697,2.368,18.482,3.941,25.128,0.31C46.68,402.027,45.818,408.05,42.451,408.791z M125.992,393.411
		c-1.949-5.13-3.847-10.048-5.027-15.706c-0.59-2.845-1.097-5.758-1.884-8.48c-1.233-4.29-2.92-7.528-2.826-13.505
		c0.05-3.086,0.64-5.666-0.313-8.48c-1.274-3.752-4.161-7.014-5.651-11.311c-1.381-3.972-3.17-7.98-4.713-11.93
		c-3.468-8.874-3.412-18.082-7.539-26.071c-0.151-0.991,0.965-0.711,0.631-1.884c-2.405-4.827-5.144-9.093-7.853-13.504
		c-2.633-4.29-6.234-8.397-7.535-13.822c2.273-0.446,3.9,6.454,7.535,6.915c0.22-4.948-5.636-6.499-6.597-11.311
		c0.802-1.687,0.688,2.55,2.511,1.884c2.315-3.193-4.104-4.955-0.627-7.846c2.206-0.877,1.661,1.037,3.767,0.938
		c1.593-3.661-2.969-3.608-4.709-2.829c-2.148,0.976-2.187,4.487-3.14,8.17c-0.496,1.922-2.054,4.91-3.14,7.853
		c-1.063,2.867-1.547,6.068-2.515,8.163c-1.264,2.746-3.696,5.159-5.023,8.164c-1.347,3.056-2.194,6.407-3.458,9.736
		c-2.538,6.718-5.651,13.353-6.279,20.101c-0.612,6.552-0.419,7.346-3.453,11.31c-1.214,1.582-2.765,3.799-4.082,4.706
		c-3.956,2.739-9.82,2.467-13.194,5.342c1.453,1.937,4.789,0.394,6.911-0.311c3.594-1.195,7.093-2.988,9.423-4.402
		c-0.477,5.9-2.047,11.529-2.512,17.589c-0.333,4.274,0.862,8.337,0.938,12.565c0.219,11.795-5.361,21.086-8.478,29.831
		c-4.887,4.085-16.356,4.327-22.926,1.573c-1.986-4.305-0.386-9.851-0.942-14.76c3.113,0.983,6.528,6.521,9.736,3.458
		c-0.836-1.574-2.72-1.424-4.082-2.202c-2.039-1.165-3.579-3.39-5.97-4.085c-0.865-10.131,1.371-22.628,2.512-32.971
		c0.352-3.207,1.668-6.286,1.884-9.115c0.136-1.733-0.81-3.707-0.314-5.334c0.307-1.014,1.381-1.052,1.888-1.885
		c0.908-1.504,1.377-4.44,2.194-6.597c0.87-2.284,2.247-4.426,2.516-6.287c0.424-2.927-0.976-4.236-1.256-7.217
		c-0.405-4.273,0.08-10.53,0.314-15.706c0.087-1.936-0.197-3.895,0-5.651c0.174-1.566,1.184-3.14,1.256-4.713
		c0.068-1.468-0.757-2.602-0.942-4.085c-0.946-7.505,3-15.607,0.628-23.241c-2.545-0.242-1.256,3.352-1.57,5.341
		c-1.85-1.604-2.576-4.335-2.202-8.163c4.531-5.795-0.462-12.914-0.31-19.474c0.031-1.399,0.973-2.753,0.938-4.084
		c-0.039-1.658-1.476-3.103-1.566-4.714c-0.238-4.092,3.048-7.482,2.822-11.62c3.548-0.53,7.051,2.065,9.736,0.317
		c-1.195-2.784-6.12-1.831-9.418-2.511c0.371-3.298,0.696-6.627,1.57-9.419c4.604,1.989,10.731,2.451,14.446,5.333
		c-1.74,2.451-4.539,3.843-5.969,6.597c2.95,3.858,8.193,5.417,13.822,6.597c0.923,9.442-12.767,7.521-18.845,5.341
		c-2.694-0.968-4.985-3.094-6.597-1.891c4.633,6.922,27.984,10.206,28.268-2.822c2.178,0.757,4.028,0.802,5.026-0.946
		c4.668,4.267,11.288,6.242,18.528,9.109c7.354,2.92,13.247,8.7,20.412,10.682c9.472,2.617,18.565-0.87,25.76-3.14
		c-1.532,10.599,5.583,18.293,5.337,27.947c-0.125,4.865-0.106,9.199,0.942,14.449c0.578,2.905,2.134,5.636,2.198,8.481
		c0.049,2.194-0.874,4.244-0.627,6.279c0.389,3.239,2.821,6.492,3.139,10.676c0.5,6.574,1.124,11.552,2.826,16.969
		c-1.937,0.567-4.584,0.431-5.651,1.876c0.627,2.617,4.07,0.257,5.969,0.318c-3.17,4.214,2.712,6.158,2.826,9.418
		c0.057,1.627-0.249,3.299,0,5.024c0.284,1.989,1.328,3.767,1.57,5.658c0.242,1.929-0.122,3.979,0,5.962
		c0.484,7.808,2.458,14.366,4.084,21.992c0.352,1.664,1.173,3.291,1.88,4.705c-1.229,3.39,0.908,7.014,0,10.048
		c-5.682-0.417-11.389-5.122-16.958-5.651c0.62,3.736,5.311,3.919,8.163,5.022c3.215,1.249,6.336,3.186,9.736,3.458
		c2.573,4.236,7.27,6.339,6.911,13.504c-9.249,0.598-16.338,3.344-22.927,6.598c-1.771-5.955-5.632-11.091-7.853-16.645
		c-0.75-1.876-0.326-4.282-2.512-5.341c0.352-2.588-1.127-5.962-3.14-7.225c-1.914,1.793,0.848,5.991,2.512,7.225
		c0.355,8.352,6.029,14.064,8.162,21.675c-1.637-0.076-3.132,0-4.395,0.311C128.11,404.91,128.015,398.736,125.992,393.411z
		 M131.329,412.248c1.286-1.218,4.966-0.695,5.968,0.318c6.802-2.951,14.147-6.983,23.242-6.598
		c1.656,1.938,0.544,4.653-1.257,5.651c-5.231-1.967-7.175,3.617-11.934,4.714c-2.909,0.673-4.868,0.136-6.911,2.201
		c-3.146,0.424-4.879-0.567-7.221-0.945C132.577,415.819,131.419,414.57,131.329,412.248z M134.468,420.419
		c2.247,0.196,4.513,0.719,6.597,0.311c1.354-0.265,2.224-1.476,3.457-1.884c1.408-0.462,3.003-0.174,4.396-0.628
		c2.951-0.969,4.759-3.253,7.225-4.396c3.064,0.243,5.871-0.529,8.163,1.257c1.29,0.998,1.668,2.95,2.83,4.086
		c1.611,1.565,4.501,2.874,6.907,4.705c3.779,2.875,6.93,6.181,13.504,5.341c1.476,1.143,3.038,2.201,5.97,1.884
		c-0.144,3.836-0.848,7.111-1.256,10.676c-13.285,1.876-25.571-3.459-39.261-4.078c-6.937-0.319-15.18,0.938-20.415-1.574
		C135.115,431.533,131.934,424.943,134.468,420.419z M182.209,445.226c-1.767-0.053-2.943,0.658-4.399,0.946
		c-5.231-5.363-13.542-1.399-21.353-2.201c-2.569-0.265-4.804-1.354-7.225-1.574c-5.323-0.461-12.003,1.43-16.017-1.884
		c0-0.521,0-1.045,0-1.566c4.286,1.384,11.02,0.682,16.958,0.946c14.472,0.628,27.825,5.438,41.771,4.705
		C189.957,447.625,185.277,445.317,182.209,445.226z M245.338,484.173c-9.88,4.47-19.492,9.351-29.837,13.186
		c-10.493,3.897-21.568,5.832-32.664,10.055c3.907-19.858,8.598-38.932,11.307-59.986c5.909,0.87,6.422-3.563,8.481-7.224
		c0.922-1.643,3.366-3.141,1.884-5.023c-5.255,1.134-3.617,10.826-10.051,9.736c-0.238-3.072,3.874-1.786,3.767-4.713
		c-0.658-1.802-3.06,0.605-3.454,0c0.549-2.596,0.659-5.622,1.256-8.171c2.652,0.491,2.943,3.344,5.652,3.775
		c1.044-3.692-3.25-4.684-5.333-6.28c2.814-25.979,8.76-48.819,10.361-76.009c1.433-0.174,1.956,0.56,3.453,0.317
		c-0.405,2.626-0.908,5.16-2.512,6.59c1.007,6.144-3.116,9.548-2.197,14.449c0.942,5.031,8.977,4.191,14.136,5.023
		c7.406,1.204,14.291,11.22,27.008,7.854c0.839-1.981,4.101-1.551,5.651-2.822c3.465-14.828-14.593-13.141-18.845-22.302
		c-0.908-0.349-2.228-0.28-3.14-0.629c-1.453-2.11-2.799-4.319-4.085-6.597c2.247-1.218,3.337-3.578,4.714-5.65
		c-0.545-13.732,2.78-26.427,3.457-41.769c0.204-4.721,0.586-9.797,2.198-12.884c2.043,2.262,4.513,6.832,7.221,11.621
		c1.997,3.54,5.534,8.67,5.969,11.31c0.405,2.459-0.688,6.354-0.945,9.427c-0.795,9.638-1.249,19.261-2.822,28.264
		c1.369,1.143,1.959-0.598,3.14-0.628c5.999,2.58,12.853,4.313,19.155,6.59c4.498,17.56,12.241,33.644,19.16,49.629
		c7.02,16.22,11.067,33.727,19.781,48.992C285.998,468.505,265.221,475.177,245.338,484.173z M317.567,459.358
		c-1.203,1.074-4.403,2.981-5.342,2.828c-1.248-0.203-4.402-5.038-5.333-6.597c-1.982-3.305-2.865-7.671-4.401-11.619
		c-4.282-11.039-8.625-22.863-13.504-34.233c-6.987-16.296-13.576-31.64-17.896-47.109c9.744,3.275,26.097,7.27,37.057,11.31
		c4.274,1.574,8.76,2.119,12.248,3.45c2.164,0.832,4.456,3.162,6.278,2.511c1.938-0.688,1.62-3.736,2.83-4.705
		c4.896,7.392-2.625,12.726-3.147,21.039c-0.354,5.742,0.749,13.292-0.938,17.9c-0.946,2.571-3.896,4.35-4.396,6.597
		c-0.59,2.625,0.113,5.923,0,8.48c-0.174,3.835-1.06,7.777,1.566,9.736c2.004-0.718,3.358,0.212,5.658-0.628
		c1.611-3.768-1.611-4.04-2.201-5.969c-3.412-11.091,10.735-13.853,12.248-21.356c3.087,3.306-1.777,5.817-2.512,8.171
		c-0.976,3.101,0.832,6.566,0,10.046c-0.484,2.028-2.67,4.902-4.396,7.853C327.251,444.114,322.946,454.576,317.567,459.358z
		 M435.973,514.63c-41.466-15.372-74.814-38.877-115.266-55.271c5.598-7.483,10.251-15.917,14.76-24.497
		c0.734,2.246,6.007,3.192,7.543,0.946c-0.688-3.897-3.049-6.25-2.512-10.055c0.242-1.74,1.725-4.925,2.821-6.589
		c0.923-1.4,2.671-2.149,3.458-3.776c2.193-4.531,1.347-9.441,4.396-12.868c4.107,1.21,7.36,2.731,10.364,5.334
		c1.694,1.459,2.488,3.677,4.396,4.713c2.663,1.438,5.886,0.923,9.108,2.512c-0.537,9.426-0.636,21.909,5.342,26.691
		c3.419,0.483,6.793,1.24,7.853-1.877c6.498,1.861,7.194-5.326,1.884-5.342c-5.069-6.869-0.122-18.981,1.884-26.38
		c4.434-2.588,4.123-6.385,5.023-13.505c0.378-2.958,1.195-5.923,1.256-8.488c0.196-8.397-2.028-16.068,5.023-18.837
		c0.015-4.789,4.403-8.262,2.201-13.194c-5.501,0.674-7.188,5.175-10.364,8.17c-2.814-2.92-12.143-4.554-14.45,0
		c-1.384-0.922-2.285-2.321-3.449-3.457c3.555-3.669,13.186-1.256,16.016-5.65c0.491,1.24-0.583,4.122,1.565,4.395
		c2.33-0.514,1.014-3.843,0.945-5.341c-0.477-10.509-0.733-22.968-1.884-33.287c6.408,0.605,8.338,5.688,10.993,10.047
		c-1.626,4.978-1.944,16.091,4.085,16.644c3.396,0.317,4.146-2.686,7.218-3.45c2.845,23.074,3.774,45.476,7.853,67.839
		c1.687,9.237,4.229,17.385,3.458,27.637c1.565,1.679,2.353,4.137,2.511,7.225c-2.187-0.848-1.649-4.427-2.829-6.279
		c-4.683,3.117,1.589,8.829,3.458,10.364C433.007,470.283,434.073,492.881,435.973,514.63z M486.221,452.451
		c-8.177,4.584-18.391-1.119-28.892-1.884c-8.995-0.658-17.559-0.175-24.496-3.141c-0.349-2.27-0.923-4.318-0.945-6.914
		c5.733,2.376,14.389,6.007,23.868,6.597c3.146,0.196,5.879-0.348,9.108,0c7.346,0.794,14.624,6.318,20.729,1.574
		C485.617,450.12,486.388,450.816,486.221,452.451z M485.594,445.226c-4.388,5.879-12.664,0.734-19.155-0.31
		c-3.942-0.644-8.126-0.008-12.249-0.318c-9.373-0.711-17.219-4.705-22.931-6.906c-0.257-1.605-1.127-4.003-0.31-5.659
		c6.257,0.976,15.055,2.897,19.783-1.877c1.86-1.884,1.868-5.568,6.597-4.713c0.969,8.904,17.31,17.635,26.063,10.992
		C484.225,439.264,485.851,441.299,485.594,445.226z M478.058,421.047c-3.524-2.043-7.361-4.577-9.426-6.914
		c-0.212-1.566,0.295-2.43,0.318-3.769c4.955,5.932,11.862,9.911,20.411,12.249C487.356,426.63,480.616,422.529,478.058,421.047z
		 M502.237,345.983c0.998,27.599-5.606,53.003-13.503,73.808c-8.028-1.921-13.884-6.015-18.528-11.31
		c4.705-15.435,7.725-38.372,8.791-56.847c0.15-2.542,0.695-4.206-1.257-5.651c0.121-1.468,1.461,1.99,2.831,0.317
		c-0.28-2.966-2.656-3.843-4.403-5.349c0.173-0.869,1.868,1.816,3.456,1.574c0.387-2.883-2.148-4.191-2.193-7.225
		c-0.053-3.125,2.27-6.491,3.768-9.737c4.063-8.799,10.228-17.756,12.559-27.318c5.062,6.211,4.44,13.421,11.31,16.954
		c3.678,1.898,9.261,1.589,12.559,4.713C511.869,327.971,503.901,333.826,502.237,345.983z M498.787,301.704
		c1.105,1.187,1.892,2.708,1.884,5.016C499.787,305.297,499.316,303.475,498.787,301.704z M530.501,445.226
		c3.133,1.476,4.934,4.281,8.171,5.651c-0.363,0.583-1.672,0.22-1.255,1.574c0.059,0.257,0.31,0.31,0.31,0.628
		c1.271,0.514,2.156-0.953,1.255-1.574c1.658,0.825,5.978,3.17,9.745,1.884c0.317,1.498,0.862,5.303-0.31,6.287
		c-0.765-0.183,0.143-2.035-0.947-1.884c-0.998-0.272-0.968,0.491-1.564,0.627c-0.364,0.924,1.504,1.166,0.628,1.566
		c-4.782-0.325-11.78,0.886-12.257-2.821c-1.164-0.22-1.392,0.492-1.257,1.566c-3.652-1.061-6.438-2.989-8.169-5.97
		C527.643,451.157,528.867,447.987,530.501,445.226z M524.851,465.955c-1.143,0-1.407-0.893-2.193-1.255
		c1.074-4.609-1.074-6.303-0.947-9.737C522.739,458.458,525.076,462.256,524.851,465.955z M550.928,461.242
		c0.802,3.117,0.924,6.975,0.945,10.055c-2.845,1.006-5.567,0.596-8.48,0.938c-8.095,0.944-16.145,4.387-24.512,5.023
		c-3.503,0.271-7.073-0.364-10.674,0c-1.688,0.173-4.011,1.255-6.279,1.255c-4.048,0.008-13.028-2.768-12.566-6.589
		c0.286-2.345,3.358-2.397,6.279-3.146c4.901-1.24,12.452-3.647,16.334-5.961c2.692-1.604,3.76-4.23,7.852-4.397
		c0.667,4.472,0.582,11.704,5.97,9.737c3.813-1.399-0.167-8.451-0.945-10.992c-0.084-0.561,0.294-0.643,0.317-0.317
		C529.707,461.968,542.069,463.488,550.928,461.242z M555.641,449.938c-2.019,0.991-10.243,1.499-12.248,0.938
		c-4.834-1.331-8.503-6.083-11.317-7.854c-0.228-3.048,0.907-4.742,0.627-7.844c5.493,6.256,19.573,8.828,27.963,3.457
		C559.605,443.426,559.16,448.207,555.641,449.938z M562.859,352.572c0.498,7.361,2.08,15.01,2.519,22.621
		c1.247,21.992,0.416,43.978-5.03,60.924c-3.307,0.658-6.054,3.072-9.737,3.457c-6.196,0.645-11.629-2.943-15.706-5.341
		c2.209-14.904,1.968-34.839,3.14-51.815c0.932-0.363,1.438,1.347,2.512,2.194c1.059,0.832,2.717,1.264,3.775,2.194
		c1.596,1.414,2.218,4.19,4.396,4.402c1.376-4.834-4.236-6.264-7.225-8.791c-2.534-2.155-3.534-5.114-5.031-7.853
		c2.519,0.136,8.451,2.013,9.744-0.628c-2.314-1.982-8.102-0.491-11-1.884c1.877-5.538-4.661-7.596-5.342-12.565
		c-0.195-1.491,0.455-3.125,0.318-4.714c-0.106-1.195-0.771-2.247-0.945-3.457c-0.409-2.981,0.453-6.067,0.627-9.102
		c0.159-2.708,0.749-6.029-0.627-8.48c-1.749,0.128-1.265,2.496-1.566,4.085c-2.323-4.069-3.67-9.108-4.396-14.768
		c9.502,0.817,14.306-3.064,21.992-4.077c7.731-3.155,13.974-7.808,19.784-12.876c0.265-0.062,0.294,0.12,0.317,0.31
		C564.016,321.222,561.793,336.596,562.859,352.572z M537.727,312.688c2.201-0.521,3.435,2.641,4.403,4.395
		C539.065,317.22,539.746,313.604,537.727,312.688z M579.511,278.145c-1.143,0.197-1.241-0.651-1.257-1.574
		c0.537,0.015,0.81-0.235,0.938-0.628C579.593,276.458,580.009,277.653,579.511,278.145z M582.649,276.889
		c-2.209-1.036-1.014-5.478-3.458-6.287c-0.233-6.015-0.566-12.249-1.564-17.899c-0.523-2.897-1.016-7.406-4.086-7.225
		c0.387,3.715,2.459,8.42,2.512,13.504c0.302,1.354-1.181,0.916-1.257,1.884c0.259,8.201,1.574,16.969,1.884,25.442
		c-0.166,1.369-2.057-1.869-3.456-0.318c0.823,2.777,4.396,4.214,1.572,7.233c-1.202-1.347-2.858-6.083-5.34-3.147
		c1.226,1.649,5.136,4.637,2.201,6.597c-2.133-1.453-2.217-6.543-5.969-5.341c0.59,2.769,6.06,6.71,1.884,8.48
		c-1.514-3.003-2.609-8.049-6.907-7.225c-0.333,2.013,1.657,1.695,2.194,2.83c1.308,1.944,2.125,4.373,3.456,6.287
		c-0.432,0.922-1.452,1.263-1.884,2.193c-1.52-2.231-3.207-7.005-6.279-5.651c1.188,2.572,2.868,4.668,5.024,6.279
		c-0.363,1.104-1.778,1.15-2.201,2.194c-2.588-2.036-4.057-6.81-7.536-6.908c0.105,3.14,3.67,5.545,5.651,7.853
		c-3.85,4.343-4.797-4.917-9.107-5.023c-0.19,3.466,3.85,5.342,5.03,8.481c-1.937,0.794-3.366,2.08-5.03,3.14
		c-2.294-1.075-3.096-6.575-6.279-4.714c-0.008,2.05,3.244,3.42,3.766,5.969c-4.781,2.126-4.713-4.517-8.488-5.341
		c-1.709,0.696-1.905,1.514-3.448,1.891c-0.545,1.953,3.178,3.896,2.511,5.962c-3.744,0.567-4.122-6.514-8.48-5.341
		c0.598,2.966,4.335,4.456,4.713,6.597c-0.196,0.438-1.21,0.046-1.257,0.628c-2.458-2.065-3.501-7.148-7.541-6.597
		c0.15,2.504,4.554,5.061,5.022,7.225c-4.092-0.363-5.446-6.862-9.418-3.458c-0.508,0.439-1.749,0.455-1.257,1.574
		c-3.608-4.342-12.248-3.662-16.332-7.534c1.315-8.625-4.411-12.022-7.854-16.334c-3.678-4.623-5.946-9.57-8.791-15.388
		c-0.454-6.18,1.731-13.708-0.938-17.271c-4.024-5.372-13.178-8.285-16.961-13.195c-1.823-4.456-5.213-7.346-6.598-12.248
		c9.063-7.581,18.46-14.836,29.521-20.412c7.975-0.802,15.146,3.994,22.303,2.822c-0.817-2.761-4.926-2.292-7.535-2.822
		c-2.913-0.598-5.674-1.536-8.171-1.891c4.94-2.384,14.063,0.696,18.218-1.256c-0.145-2.186-3.519-1.793-5.342-1.883
		c-16.56-0.764-24.602,4.168-35.178,11.621c-5.395,3.813-10.956,7.739-16.327,11.938c-3.057,2.383-4.933,4.879-8.799,6.597
		c-0.922-0.446,1.264-2.042,0-2.829c-3.275-0.455-2.436,3.623-5.333,4.713c-4.539,1.702-11.81-2.224-16.334,1.256
		c-1.051-0.189-1.725-1.581-3.14-1.884c-3.624-0.787-8.064-2.292-11.938-3.767c-4.003-1.528-10.017-1.113-13.814-2.83
		c-1.831-0.824-4.676-4.334-6.598-1.573c1.212,1.619,3.473,2.179,5.342,3.146c0.045,0.961-0.741,1.771,0,2.512
		c1.899,0.439,1.438-1.498,3.14-1.255c6.294,1.559,12.838,2.859,18.527,5.023c-5.432,0.423-11.129-2.315-17.271-2.83
		c-2.98-0.242-5.644,0.326-8.163-0.628c-1.044-0.385-1.975-1.422-3.147-1.883c-5.296-2.073-10.811-0.575-13.504-4.396
		c1.21-3.639,5.114-5.749,9.427-7.542c4.486-1.861,7.277-4.554,12.248-1.884c-1.332,1.037-5.228,0.992-4.396,3.147
		c1.49,1.612,3.389-0.71,5.651-0.946c4.606-0.484,10.796,0.484,14.76,0.628c2.777-3.797,4.297-8.223,8.163-11.303
		c2.263-1.808,4.751-3.185,6.914-5.341c1.703-1.709,5.402-3.601,4.078-6.915c-2.043-0.046-2.481,3.163-3.767,2.829
		c3.782-8.919,2.882-19.745,5.341-29.209c0.582-2.24,1.082-3.382,1.566-6.598c0.604-3.949,4.463-8.345,4.713-13.497
		c6.521-3.956,10.613-10.327,17.907-13.511c6.702,0.378,12.301,4.327,17.271,7.853c4.993,3.563,10.766,5.961,15.07,9.736
		c4.887,4.282,8.14,10.259,13.193,14.45c5.152,4.282,10.796,7.203,16.017,11.62c-0.061,0.356-0.317,0.174-0.31,0
		c-7.264-3.298-15.019-5.931-21.986-9.736c-2.125-1.166-3.935-3.707-6.597-3.14c1.535,3.571,5.803,5.167,9.108,6.907
		c10.184,5.372,22.425,9.056,31.094,16.334c-6.877-1.445-15.122-4.781-22.302-7.225c-2.059-0.696-5.001-2.61-6.908-0.946
		c2.588,2.701,6.544,3.276,9.737,4.403c10.356,3.654,20.971,6.279,30.155,12.241c10.751,6.991,21.039,17.423,27.636,28.899
		c3.54,6.158,6.93,8.224,7.543,18.218c0.28,4.629,1.877,11.25,0.938,16.016c0.356,0.59,0.371,1.513,1.574,1.256
		C580.75,272.425,583.496,275.444,582.649,276.889z"/>
	<path class="path" fill-rule="evenodd" clip-rule="evenodd" d="M312.544,192.406c-0.642,3.106,3.964,3.044,5.719,4.98
		c-0.146-1.061-0.341-2.095-0.576-3.086c-0.681-0.096-0.869-0.681-1.686-0.637c0.152-0.317,0.912-0.325,1.497-0.112
		c-0.229-0.88-0.482-1.726-0.75-2.52C315.125,191.006,313.008,191.273,312.544,192.406z"/>
	<path class="path" fill-rule="evenodd" clip-rule="evenodd" d="M224.924,194.918c-1.154-2.83-3.984-3.972-5.337-6.597
		c1.282-3.919-1.982-6.317-1.888-9.109c-3.208-1.188-3.779-5.016-4.082-9.109c0.469-0.371,0.885-0.787,1.255-1.256
		c-0.106-2.247,0.871-4.841,0.942-7.535c0.11-4.396-0.495-10.032-3.771-11.311c-0.999,2.867,3.071,8.881,0.946,12.876
		c-2.27-5.583-8.028-7.672-9.423-14.132c1.982-0.242,2.447-0.93,4.081-0.938c0.243-1.408,1.177-2.822,0.628-4.085
		c-2.372-0.84-1.766,2.603-3.14,0.938c1.408-2.285,4.139-6.151,3.14-8.791c-1.906,0.189-2.334,1.854-2.198,4.085
		c-2.054,0.666-1.638,3.805-3.453,4.705c-0.262,1.12,1.944,1.377,0.942,2.202c-0.398,0.96-2.357,0.363-2.198,1.884
		c-0.998,4.38,3.813,5.871,4.396,8.798c0.953,4.797-3.428,5.681-4.396,10.047c3.881,0.159,5.353-4.653,6.907-7.853
		c1.06,2.974,4.524,4.374,4.085,7.543c-0.22,1.551-2.33,2.163-4.399,4.078c-2.357,2.178-5.304,6.589-8.477,4.084
		c-2.065,1.703-4.033,5.175-6.598,5.334c0.318-7.513-2.564-12.506-1.256-20.101c3.208-2.134,11.046-2.966,9.737-7.536
		c-2.497,1.385-6.518,3.957-10.05,5.341c-1.509-0.87-5.648-0.007-6.283,0c-1.377-1.823,1.37-5.999-1.255-6.279
		c-2.895,5.069,0.499,11.923,0.942,18.528c0.344,5.107,0.574,9.056,0.942,13.194c0.211,2.353-0.7,5.379,1.255,6.59
		c2.27-1.521,1.18-4.94,0.946-7.535c-0.636-6.862-0.969-15.85-2.516-21.357c0.821-0.96,1.994-1.565,4.082-1.256
		c-0.31,11.567,1.846,21.425,1.255,33.605c0.25,1.052,1.688,2.096,0.946,3.14c-1.562,0.197-1.77-1.165-3.139-0.31
		c-0.196,1.77,0.681,2.45,1.884,2.821c1.18,0.137,1.112-0.975,1.884-1.255c1.354,1.914,10.077,2.966,10.992,0.318
		c-1.422-1.68-6.219-0.318-9.108-1.256c-1.06-3.934-2.278-8.783-1.256-13.822c3.336-1.165,5.357-3.646,7.536-5.968
		c2.53,1.929,5.39-1.279,8.17-1.257c2.867,0.031,4.558,1.959,6.279,4.085c-1.626,1.203-4.997,0.659-5.341,3.14
		c2.035,1.717,4.623-0.87,6.597-1.255c2.535,2.436,0.447,6.128,1.256,9.736c2.853-0.113,4.57,1.361,5.341,4.085
		c-2.55,1.884-8.662-3.071-10.682,0.311c1.88,1.785,5.866,1.467,8.794,2.202c-0.307,1.527,1.524,0.922,2.515,1.573
		c2.992,1.952,8.655,6.953,11.62,5.016l-0.317-0.31C232.462,200.585,222.957,202.492,224.924,194.918z M208.904,174.189
		c0.173-1.506,1.792-1.559,2.515-2.512c0.916,0.34-0.291,2.799,0.625,3.14C211.699,175.143,209.773,174.378,208.904,174.189z"/>
	<path class="path" fill-rule="evenodd" clip-rule="evenodd" d="M374.73,91.59c-1.959-0.756-4.486,0.341-5.03-2.201
		c0.665-0.908,0.983-2.156,1.573-3.14C373.974,86.318,375.525,89.057,374.73,91.59z"/>
	<path class="path" fill-rule="evenodd" clip-rule="evenodd" d="M358.707,77.141c0.424,0,0.84,0,1.256,0c1.029,1.294,0.605,4.735-1.256,5.023
		c-0.976,0.144-0.999-0.666-0.938-1.574c-0.591,1.293-0.848,2.928-1.884,3.774c0.748,0.863,0.62,1.892,0.311,3.141
		c0.612,0.643,1.482,1.028,2.201,1.565c0.06-0.976-0.212-2.299,0.31-2.822c0.424,0,0.84,0,1.256,0
		c0.386,0.976,0.734,1.99,0.636,3.458c-0.764-0.129-0.688,0.566-1.574,0.31c-0.499,1.483,0.515,2.11,0.938,3.458
		c1.385-0.825,2.731-1.671,4.086-2.512c1.672,0.484,3.108,2.67,2.201,4.706c-0.9,0.068-1.718,0.045-1.573-0.939
		c-0.56,0.484-0.205,1.884-0.938,2.195c-1.256,0.105-1.747-0.56-3.14-0.311c-0.438-0.408-0.311-1.362-0.318-2.202
		c-0.884-0.053-0.733,0.946-1.573,0.946c-1.202-0.167-1.701-1.226-1.256-2.202c-0.885,0.326-1.309,0.326-2.193,0
		c0.045-3.986-1.839-5.795-2.512-10.365c2.035-0.371,2.913-1.898,3.14-4.085c1.407-0.249,1.74,0.56,1.884,1.574
		C358.813,79.97,358.034,77.822,358.707,77.141z"/>
	<path class="path" fill-rule="evenodd" clip-rule="evenodd" d="M446.647,111.064c0.423,0,0.84,0,1.256,0c1.202,3.109,1.46,8.776,1.255,12.241
		c1.839,3.821,0.848,12.143-2.511,13.822c-1.461-2.171,1.392-4.684,0.945-7.853c-0.719,1.694-1.203,3.616-1.884,5.34
		c-2.966,1.241-4.282,5.742-8.798,4.396c0.09-2.943,3.872-2.202,5.03-4.085c0.045-3.586,3.2-5.341,1.566-8.792
		c0.604-0.741,1.596-0.741,2.201,0C447.903,122.011,446.299,116.216,446.647,111.064z"/>
</g>
</svg>
